<?xml version="1.0" encoding="utf-8"?>
<!-- Uploaded to: SVG Repo, www.svgrepo.com, Generator: SVG Repo Mixer Tools -->
<svg width="800px" height="800px" viewBox="0 0 1024 1024" class="icon"  version="1.1" xmlns="http://www.w3.org/2000/svg"><path d="M917.333333 640V384c0-46.933333-38.4-85.333333-85.333333-85.333333H192c-46.933333 0-85.333333 38.4-85.333333 85.333333v256c0 46.933333 38.4 85.333333 85.333333 85.333333h640c46.933333 0 85.333333-38.4 85.333333-85.333333zM192 384h640v256H192V384z" fill="#90CAF9" /><path d="M810.666667 810.666667m-213.333334 0a213.333333 213.333333 0 1 0 426.666667 0 213.333333 213.333333 0 1 0-426.666667 0Z" fill="#43A047" /><path d="M682.666667 768h256v85.333333H682.666667z" fill="#FFFFFF" /><path d="M768 682.666667h85.333333v256h-85.333333z" fill="#FFFFFF" /></svg>