<?xml version="1.0" encoding="iso-8859-1"?>
<!-- Uploaded to: SVG Repo, www.svgrepo.com, Generator: SVG Repo Mixer Tools -->
<svg version="1.1" id="Layer_1" xmlns="http://www.w3.org/2000/svg" xmlns:xlink="http://www.w3.org/1999/xlink" 
	 viewBox="0 0 392.629 392.629" xml:space="preserve">
<path style="fill:#FFC10D;" d="M131.864,355.491V32.388c0-5.947-4.848-10.731-10.731-10.731H34.507
	c-5.947,0-10.731,4.848-10.731,10.731v323.168c0,5.947,4.848,10.731,10.731,10.731h86.626
	C127.081,366.222,131.864,361.438,131.864,355.491z"/>
<g>
	<path style="fill:#FFFFFF;" d="M252.107,42.149c-2.133-5.236-8.21-7.758-13.382-5.56l-76.283,31.418
		c-5.236,2.133-7.758,8.21-5.56,13.382l117.204,284.38c2.133,5.236,8.21,7.758,13.382,5.56l76.283-31.418
		c5.236-2.133,7.758-8.21,5.56-13.382L252.107,42.149z"/>
	<rect x="64.373" y="62.255" style="fill:#FFFFFF;" width="26.764" height="81.067"/>
	<path style="fill:#FFFFFF;" d="M77.755,265.438c-13.123,0-23.79,10.667-23.79,23.79c0,13.123,10.667,23.79,23.79,23.79
		s23.79-10.667,23.79-23.79C101.545,276.105,90.879,265.438,77.755,265.438z"/>
</g>
<g>
	<path style="fill:#194F82;" d="M53.642,164.978h48.291c5.947,0,10.731-4.784,10.731-10.731V51.523
		c0-5.947-4.784-10.731-10.731-10.731H53.642c-5.947,0-10.731,4.784-10.731,10.731v102.594
		C42.911,160.065,47.695,164.978,53.642,164.978z M91.137,143.386H64.373V62.255h26.764V143.386z"/>
	<path style="fill:#194F82;" d="M77.755,243.846c-25.018,0-45.382,20.299-45.382,45.382c0,25.083,20.299,45.382,45.382,45.382
		s45.382-20.299,45.382-45.382C123.137,264.145,102.773,243.846,77.755,243.846z M77.755,312.954
		c-13.123,0-23.79-10.667-23.79-23.79s10.667-23.79,23.79-23.79s23.79,10.667,23.79,23.79S90.879,312.954,77.755,312.954z"/>
	<path style="fill:#194F82;" d="M388.252,318.642L271.048,34.263c-6.465-15.709-24.501-23.208-40.21-16.679
		c0,0-77.059,31.806-77.446,32V32.323C153.392,14.481,138.846,0,121.068,0H34.442C16.6,0,2.054,14.545,2.054,32.323v323.168
		c0,17.842,14.545,32.323,32.323,32.323h86.626c17.842,0,32.323-14.545,32.323-32.323V126.836l101.754,246.756
		c6.465,15.709,24.501,23.208,40.21,16.679l76.283-31.418C387.218,352.323,394.717,334.352,388.252,318.642z M23.646,355.491V32.388
		c0-5.947,4.848-10.731,10.731-10.731h86.626c5.947,0,10.731,4.848,10.731,10.731v323.168c0,5.947-4.848,10.731-10.731,10.731
		H34.507C28.559,366.222,23.646,361.438,23.646,355.491z M363.751,339.911l-76.283,31.418c-5.236,2.133-11.184-0.323-13.382-5.56
		L156.883,81.455c-2.133-5.236,0.323-11.184,5.56-13.382l76.283-31.418c5.236-2.133,11.184,0.323,13.382,5.56l117.204,284.38
		C371.509,331.701,368.988,337.713,363.751,339.911z"/>
</g>
<rect x="191.514" y="111.068" transform="matrix(-0.3812 -0.9245 0.9245 -0.3812 203.3989 383.6863)" style="fill:#56ACE0;" width="77.188" height="25.406"/>
<path style="fill:#194F82;" d="M279.388,156.315l-37.236-90.311c-2.133-5.236-8.145-7.758-13.382-5.56l-42.473,17.519
	c-5.236,2.133-7.758,8.145-5.56,13.382l37.236,90.311c2.133,5.236,8.145,7.758,13.382,5.56l42.473-17.519
	C279.064,167.499,281.521,161.487,279.388,156.315z M233.036,164.331l-29.414-71.37l23.467-9.762l29.414,71.434L233.036,164.331z"/>
<path style="fill:#56ACE0;" d="M318.628,279.079c-4.784-11.507-18.036-17.067-29.608-12.283s-17.067,18.036-12.347,29.608
	c4.784,11.507,18.036,17.067,29.608,12.283C317.852,303.903,323.412,290.651,318.628,279.079z"/>
<path style="fill:#194F82;" d="M337.569,271.257c-9.051-22.044-34.392-32.517-56.307-23.402
	c-22.044,9.05-32.517,34.392-23.467,56.307c9.051,22.044,34.392,32.517,56.307,23.402
	C336.083,318.578,346.685,293.301,337.569,271.257z M276.737,296.404c-4.784-11.507,0.776-24.824,12.347-29.608
	c11.572-4.784,24.824,0.776,29.608,12.283c4.784,11.507-0.776,24.824-12.347,29.608
	C294.773,313.471,281.456,307.911,276.737,296.404z"/>
</svg>