<!DOCTYPE svg PUBLIC "-//W3C//DTD SVG 1.1//EN" "http://www.w3.org/Graphics/SVG/1.1/DTD/svg11.dtd">
<!-- Uploaded to: SVG Repo, www.svgrepo.com, Transformed by: SVG Repo Mixer Tools -->
<svg height="64px" width="64px" version="1.1" id="Layer_1" xmlns="http://www.w3.org/2000/svg" xmlns:xlink="http://www.w3.org/1999/xlink" viewBox="0 0 392.519 392.519" xml:space="preserve" fill="#000000">
<g id="SVGRepo_bgCarrier" stroke-width="0"/>
<g id="SVGRepo_tracerCarrier" stroke-linecap="round" stroke-linejoin="round"/>
<g id="SVGRepo_iconCarrier"> <path style="fill:#FFFFFF;" d="M280.074,21.786H156.793c7.434,9.568,11.895,21.463,11.895,34.521v302.998l66.133-51.717 c3.685-3.038,9.632-3.297,13.446,0l66.133,51.717V56.307C314.53,37.366,298.627,21.786,280.074,21.786z"/> <path style="fill:#FFC10D;" d="M77.924,115.394h69.107V56.372c0-19.006-15.515-34.521-34.521-34.521S77.924,37.236,77.924,56.307 V115.394z"/> <path style="fill:#56ACE0;" d="M280.074,43.572h-89.471v125.479h48.291c6.012,0,10.925,4.848,10.925,10.925 c0,6.012-4.848,10.925-10.925,10.925h-48.291v34.78h25.729c6.012,0,10.925,4.848,10.925,10.925c0,6.012-4.848,10.925-10.925,10.925 h-25.729v67.103l51.071-39.887l51.071,39.887V56.307C292.744,49.325,286.991,43.572,280.074,43.572z"/> <path style="fill:#194F82;" d="M280.074,0H112.381C81.286,0,56.074,25.277,56.074,56.307v69.947c0,6.012,4.848,10.925,10.925,10.925 h79.968v244.493c-0.065,8.857,9.891,14.093,17.648,8.598l77.123-60.186l77.059,60.121c7.499,5.495,17.131,0.388,17.648-8.598V56.307 C336.381,25.277,311.104,0,280.074,0z M146.902,115.394H77.859V56.372c0-19.006,15.515-34.521,34.521-34.521 s34.521,15.451,34.521,34.521V115.394L146.902,115.394z M314.53,359.305l-66.198-51.717c-3.943-3.103-9.503-3.103-13.446,0 l-66.069,51.717V56.307c0-12.994-4.461-24.954-11.895-34.521h123.152c19.006,0,34.521,15.451,34.521,34.521v302.998H314.53z"/> </g>
</svg>