<?xml version="1.0" encoding="iso-8859-1"?>
<!-- Uploaded to: SVG Repo, www.svgrepo.com, Generator: SVG Repo Mixer Tools -->
<svg version="1.1" id="Layer_1" xmlns="http://www.w3.org/2000/svg" xmlns:xlink="http://www.w3.org/1999/xlink" 
	 viewBox="0 0 392.663 392.663" xml:space="preserve">
<path style="fill:#FFFFFF;" d="M359.822,195.814c6.012,0,10.925-4.848,10.925-10.925V86.044c0-6.012-4.848-10.925-10.925-10.925
	H32.711c-6.012,0-10.925,4.848-10.925,10.925v98.844c0,6.012,4.848,10.925,10.925,10.925"/>
<path style="fill:#FFC10D;" d="M348.962,96.97H43.572v77.059h21.786v-1.616c0-6.012,4.848-10.925,10.925-10.925h54.432
	c6.012,0,10.925,4.848,10.925,10.925v1.616h109.253v-1.616c0-6.012,4.848-10.925,10.925-10.925h54.497
	c6.012,0,10.925,4.848,10.925,10.925v1.616h21.786L348.962,96.97L348.962,96.97z"/>
<path style="fill:#FFFFFF;" d="M39.434,217.6v142.287c0,6.012,4.848,10.925,10.925,10.925h291.943
	c6.012,0,10.925-4.848,10.925-10.925V217.6"/>
<path style="fill:#56ACE0;" d="M61.22,275.329h47.451c6.012,0,10.925,4.848,10.925,10.925c0,6.012-4.848,10.925-10.925,10.925H61.22
	v19.782h31.677c6.012,0,10.925,4.848,10.925,10.925c0,6.012-4.848,10.925-10.925,10.925H61.22v10.279h270.158V239.386h-4.202v5.236
	c0,6.012-4.848,10.925-10.925,10.925h-54.497c-6.012,0-10.925-4.848-10.925-10.925v-5.236H141.576v5.236
	c0,6.012-4.848,10.925-10.925,10.925H76.218c-6.012,0-10.925-4.848-10.925-10.925v-5.236h-4.202v35.943H61.22z"/>
<g>
	<rect x="87.143" y="183.273" style="fill:#FFC10D;" width="32.582" height="50.554"/>
	<path style="fill:#FFC10D;" d="M305.325,183.208v50.554h-32.582v-26.958c0,0,0,0,0-0.065s0,0,0-0.065v-23.402L305.325,183.208
		L305.325,183.208z"/>
</g>
<path style="fill:#194F82;" d="M359.822,53.269h-72.404V32.776c0-18.036-14.675-32.711-32.711-32.711H137.826
	c-18.036,0-32.711,14.675-32.711,32.711v20.558H32.711C14.675,53.333,0,68.008,0,86.109v98.844c0,12.606,7.176,23.467,17.648,28.962
	v145.972c0,18.036,14.675,32.711,32.711,32.711h291.943c18.036,0,32.711-14.675,32.711-32.711V213.851
	c10.408-5.495,17.648-16.356,17.648-28.962V86.044C392.533,68.008,377.859,53.269,359.822,53.269z M353.099,359.887
	c0,6.012-4.848,10.925-10.925,10.925H50.295c-6.012,0-10.925-4.848-10.925-10.925V217.6h25.988v21.786v5.236
	c0,6.012,4.848,10.925,10.925,10.925h54.432c6.012,0,10.925-4.848,10.925-10.925v-5.236V217.6h109.253v21.786v5.236
	c0,6.012,4.848,10.925,10.925,10.925h54.497c6.012,0,10.925-4.848,10.925-10.925v-5.236V217.6h26.053v142.287H353.099z
	 M272.679,233.762v-26.958c0,0,0,0,0-0.065s0,0,0-0.065v-23.402h32.582v50.554L272.679,233.762L272.679,233.762z M119.855,233.826
	H87.273v-50.554h32.582L119.855,233.826L119.855,233.826z M370.747,184.889c0,6.012-4.848,10.925-10.925,10.925h-32.711v-21.786
	v-1.616c0-6.012-4.848-10.925-10.925-10.925h-54.497c-6.012,0-10.925,4.848-10.925,10.925v1.616v21.786H141.511v-21.786v-1.616
	c0-6.012-4.848-10.925-10.925-10.925H76.154c-6.012,0-10.925,4.848-10.925,10.925v1.616v21.786H32.711
	c-6.012,0-10.925-4.848-10.925-10.925V86.044c0-6.012,4.848-10.925,10.925-10.925h327.111c6.012,0,10.925,4.848,10.925,10.925
	V184.889L370.747,184.889z M126.966,32.776c0-6.012,4.848-10.925,10.925-10.925h116.816c6.012,0,10.925,4.848,10.925,10.925v20.558
	H126.966V32.776z"/>
</svg>