<?xml version="1.0" encoding="iso-8859-1"?>
<!-- Uploaded to: SVG Repo, www.svgrepo.com, Generator: SVG Repo Mixer Tools -->
<svg version="1.1" id="Layer_1" xmlns="http://www.w3.org/2000/svg" xmlns:xlink="http://www.w3.org/1999/xlink" 
	 viewBox="0 0 508 508" xml:space="preserve">
<path style="fill:#FFFFFF;" d="M465.75,479.8c7.8,0,14.1-6.3,14.1-14.1V182.2H28.25v283.5c0,7.8,6.3,14.1,14.1,14.1L465.75,479.8
	L465.75,479.8z"/>
<path style="fill:#56ACE0;" d="M56.45,210.4v31.2h63.7c7.8,0,14.1,6.3,14.1,14.1s-6.3,14.1-14.1,14.1h-63.7v29.3h35.5
	c7.8,0,14.1,6.3,14.1,14.1s-6.3,14.1-14.1,14.1h-35.5v124.1h395.1v-241H56.45z"/>
<path style="fill:#FFC10D;" d="M42.35,72.8c-7.8,0-14.1,6.3-14.1,14.1V154h451.6V86.9c0-7.8-6.3-14.1-14.1-14.1"/>
<rect x="194.25" y="263.5" style="fill:#FFFFFF;" width="19.7" height="25.1"/>
<path style="fill:#194F82;" d="M228.05,235.3h-47.9c-7.8,0-14.1,6.3-14.1,14.1v53.3c0,7.8,6.3,14.1,14.1,14.1h47.9
	c7.8,0,14.1-6.3,14.1-14.1v-53.3C242.15,241.6,235.85,235.3,228.05,235.3z M213.95,288.6h-19.7v-25.1h19.7V288.6z"/>
<rect x="294.15" y="263.5" style="fill:#FFFFFF;" width="19.7" height="25.1"/>
<path style="fill:#194F82;" d="M327.95,235.3h-47.9c-7.8,0-14.1,6.3-14.1,14.1v53.3c0,7.8,6.3,14.1,14.1,14.1h47.9
	c7.8,0,14.1-6.3,14.1-14.1v-53.3C342.05,241.6,335.75,235.3,327.95,235.3z M313.85,288.6h-19.7v-25.1h19.7V288.6z"/>
<rect x="394.15" y="263.5" style="fill:#FFFFFF;" width="19.7" height="25.1"/>
<path style="fill:#194F82;" d="M427.85,235.3h-47.9c-7.8,0-14.1,6.3-14.1,14.1v53.3c0,7.8,6.3,14.1,14.1,14.1h47.9
	c7.8,0,14.1-6.3,14.1-14.1v-53.3C441.95,241.6,435.65,235.3,427.85,235.3z M413.75,288.6h-19.7v-25.1h19.7V288.6z"/>
<rect x="94.35" y="385.7" style="fill:#FFFFFF;" width="19.7" height="25.1"/>
<path style="fill:#194F82;" d="M128.15,357.5h-47.9c-7.8,0-14.1,6.3-14.1,14.1v53.3c0,7.8,6.3,14.1,14.1,14.1h47.9
	c7.8,0,14.1-6.3,14.1-14.1v-53.3C142.25,363.8,135.85,357.5,128.15,357.5z M113.95,410.8h-19.6v-25.1h19.7v25.1H113.95z"/>
<rect x="194.25" y="385.7" style="fill:#FFFFFF;" width="19.7" height="25.1"/>
<path style="fill:#194F82;" d="M228.05,357.5h-47.9c-7.8,0-14.1,6.3-14.1,14.1v53.3c0,7.8,6.3,14.1,14.1,14.1h47.9
	c7.8,0,14.1-6.3,14.1-14.1v-53.3C242.15,363.8,235.85,357.5,228.05,357.5z M213.95,410.8h-19.7v-25.1h19.7V410.8z"/>
<rect x="294.15" y="385.7" style="fill:#FFFFFF;" width="19.7" height="25.1"/>
<g>
	<path style="fill:#194F82;" d="M327.95,357.5h-47.9c-7.8,0-14.1,6.3-14.1,14.1v53.3c0,7.8,6.3,14.1,14.1,14.1h47.9
		c7.8,0,14.1-6.3,14.1-14.1v-53.3C342.05,363.8,335.75,357.5,327.95,357.5z M313.85,410.8h-19.7v-25.1h19.7V410.8z"/>
	<path style="fill:#194F82;" d="M465.75,44.5h-35.5V14.1c0-7.8-6.3-14.1-14.1-14.1s-14.1,6.3-14.1,14.1v30.4h-79.8V14.1
		c-0.1-7.8-6.4-14.1-14.2-14.1s-14.1,6.3-14.1,14.1v30.4h-79.8V14.1c0-7.8-6.3-14.1-14.1-14.1s-14.1,6.3-14.1,14.1v30.4h-79.9V14.1
		c0-7.8-6.3-14.1-14.1-14.1s-14.1,6.3-14.1,14.1v30.4h-35.5c-23.3,0-42.3,19-42.3,42.4v378.8c0,23.3,19,42.3,42.3,42.3h423.3
		c23.3,0,42.3-19,42.3-42.3V86.9C508.05,63.5,489.05,44.5,465.75,44.5z M479.85,465.7c0,7.8-6.3,14.1-14.1,14.1H42.35
		c-7.8,0-14.1-6.3-14.1-14.1V182.2h451.6L479.85,465.7L479.85,465.7z M479.85,154H28.25V86.9c0-7.8,6.3-14.1,14.1-14.1h35.5v29.3
		c0,7.8,6.3,14.1,14.1,14.1s14.1-6.3,14.1-14.1V72.8h79.9v29.3c0,7.8,6.3,14.1,14.1,14.1s14.1-6.3,14.1-14.1V72.8h79.8v29.3
		c0,7.8,6.3,14.1,14.1,14.1c7.8,0,14.1-6.3,14.1-14.1V72.8h79.9v29.3c0,7.8,6.3,14.1,14.1,14.1c7.8,0,14.1-6.3,14.1-14.1V72.8h35.5
		c7.8,0,14.1,6.3,14.1,14.1L479.85,154L479.85,154z"/>
</g>
</svg>