<?xml version="1.0" encoding="iso-8859-1"?>
<!-- Uploaded to: SVG Repo, www.svgrepo.com, Generator: SVG Repo Mixer Tools -->
<svg height="800px" width="800px" version="1.1" id="Layer_1" xmlns="http://www.w3.org/2000/svg" xmlns:xlink="http://www.w3.org/1999/xlink" 
	 viewBox="0 0 508 508" xml:space="preserve">
<g>
	<path style="fill:#FFFFFF;" d="M465.75,479.8c7.8,0,14.1-6.3,14.1-14.1V204.8H28.25v260.9c0,7.8,6.3,14.1,14.1,14.1L465.75,479.8
		L465.75,479.8z"/>
	<path style="fill:#FFFFFF;" d="M268.15,91.4v-49c0-7.8-6.3-14.1-14.1-14.1c-7.8,0-14.1,6.3-14.1,14.1v49.1
		c0,7.8,6.3,14.1,14.1,14.1S268.15,99.2,268.15,91.4z"/>
	<path style="fill:#FFFFFF;" d="M97.55,28.3c-7.8,0-14.1,6.3-14.1,14.1v49.1c0,7.8,6.3,14.1,14.1,14.1s14.1-6.3,14.1-14.1V42.4
		C111.65,34.6,105.35,28.3,97.55,28.3z"/>
	<path style="fill:#FFFFFF;" d="M424.65,91.4v-49c0-7.8-6.3-14.1-14.1-14.1s-14.1,6.3-14.1,14.1v49.1c0,7.8,6.3,14.1,14.1,14.1
		S424.65,99.2,424.65,91.4z"/>
</g>
<path style="fill:#56ACE0;" d="M56.45,233v29.3h56.3c7.8,0,14.1,6.3,14.1,14.1c0,7.8-6.3,14.1-14.1,14.1h-56.3v25.7h28.1
	c7.8,0,14.1,6.3,14.1,14.1s-6.3,14.1-14.1,14.1h-28.1v107.1h395.1V233H56.45z"/>
<path style="fill:#194F82;" d="M465.75,52.4h-12.9V42.3c0-23.3-19-42.3-42.3-42.3s-42.3,19-42.3,42.3v10.1h-71.8V42.3
	C296.35,19,277.35,0,254.05,0s-42.3,19-42.3,42.3v10.1h-71.8V42.3c0-23.3-19-42.3-42.4-42.3s-42.3,19-42.3,42.3v10.1h-12.9
	c-23.3,0-42.3,19-42.3,42.4v370.9c0,23.3,19,42.3,42.3,42.3h423.3c23.3,0,42.3-19,42.3-42.3V94.8
	C508.05,71.4,489.05,52.4,465.75,52.4z M396.45,42.3c0-7.8,6.3-14.1,14.1-14.1s14.1,6.3,14.1,14.1v49.1c0,7.8-6.3,14.1-14.1,14.1
	s-14.1-6.3-14.1-14.1V42.3z M239.95,42.3c0-7.8,6.3-14.1,14.1-14.1s14.1,6.3,14.1,14.1v49.1c0,7.8-6.3,14.1-14.1,14.1
	c-7.8,0-14.1-6.3-14.1-14.1V42.3z M83.45,42.3c0-7.8,6.3-14.1,14.1-14.1s14.1,6.3,14.1,14.1v49.1c0,7.8-6.3,14.1-14.1,14.1
	s-14.1-6.3-14.1-14.1V42.3z M479.85,465.7c0,7.8-6.3,14.1-14.1,14.1H42.35c-7.8,0-14.1-6.3-14.1-14.1V204.8h451.6L479.85,465.7
	L479.85,465.7z M479.85,176.6H28.25V94.8c0-7.8,6.3-14.1,14.1-14.1h12.9v10.7c0,23.3,19,42.3,42.3,42.3s42.3-19,42.3-42.3V80.7h71.8
	v10.7c0,23.3,19,42.3,42.3,42.3s42.3-19,42.3-42.3V80.7h71.8v10.7c0,23.3,19,42.3,42.3,42.3s42.3-19,42.3-42.3V80.7h12.9
	c7.8,0,14.1,6.3,14.1,14.1v81.8H479.85z"/>
<path style="fill:#FFC10D;" d="M42.35,80.7c-7.8,0-14.1,6.3-14.1,14.1v81.8h451.6V94.8c0-7.8-6.3-14.1-14.1-14.1h-12.9v10.7
	c0,23.3-19,42.3-42.3,42.3s-42.3-19-42.3-42.3V80.7h-71.8v10.7c0,23.3-19,42.3-42.3,42.3s-42.3-19-42.3-42.3V80.7h-71.8v10.7
	c0,23.3-19,42.3-42.3,42.3s-42.3-19-42.3-42.3V80.7H42.35z"/>
<path style="fill:#194F82;" d="M196.25,385.9c0,31.9,25.9,57.8,57.8,57.8s57.8-25.9,57.8-57.8c0-17.4-7.8-33.1-20.1-43.7
	c12.3-10.6,20.1-26.2,20.1-43.7c0-31.9-25.9-57.8-57.8-57.8s-57.8,25.9-57.8,57.8c0,17.4,7.8,33.1,20.1,43.7
	C204.05,352.9,196.25,368.5,196.25,385.9z M254.05,269.1c16.3,0,29.6,13.3,29.6,29.6s-13.3,29.6-29.6,29.6s-29.6-13.3-29.6-29.6
	S237.75,269.1,254.05,269.1z M254.05,356.4c16.3,0,29.6,13.3,29.6,29.6c0,16.3-13.3,29.5-29.6,29.5s-29.6-13.3-29.6-29.5
	C224.45,369.7,237.75,356.4,254.05,356.4z"/>
</svg>