<!DOCTYPE svg PUBLIC "-//W3C//DTD SVG 1.1//EN" "http://www.w3.org/Graphics/SVG/1.1/DTD/svg11.dtd">
<!-- Uploaded to: SVG Repo, www.svgrepo.com, Transformed by: SVG Repo Mixer Tools -->
<svg height="64px" width="64px" version="1.1" id="Layer_1" xmlns="http://www.w3.org/2000/svg" xmlns:xlink="http://www.w3.org/1999/xlink" viewBox="0 0 392.56 392.56" xml:space="preserve" fill="#000000">
<g id="SVGRepo_bgCarrier" stroke-width="0"/>
<g id="SVGRepo_tracerCarrier" stroke-linecap="round" stroke-linejoin="round"/>
<g id="SVGRepo_iconCarrier"> <path style="fill:#FFFFFF;" d="M111.14,308.105c2.004-2.004,4.784-3.168,7.758-3.168h102.206c6.012,0,10.925-4.848,10.925-10.925 V168.921c0-6.012-4.848-10.925-10.925-10.925H32.789c-6.012,0-10.925,4.848-10.925,10.925v125.026 c0,6.012,4.848,10.925,10.925,10.925h20.428c6.012,0,10.925,4.849,10.925,10.925v39.305L111.14,308.105z"/> <polygon style="fill:#FFC10D;" points="85.928,283.022 43.65,283.022 43.65,179.782 210.114,179.782 210.114,283.022 105.258,283.022 85.928,302.416 "/> <path style="fill:#FFFFFF;" d="M359.771,21.657H171.585c-6.012,0-10.925,4.848-10.925,10.925v103.693h60.444 c17.842,0,32.453,14.481,32.711,32.194h20.04c2.844,0,5.624,1.164,7.758,3.168l46.998,46.998v-39.305 c0-6.012,4.848-10.925,10.925-10.925h20.428c6.012,0,10.925-4.848,10.925-10.925V32.517 C370.696,26.505,365.848,21.657,359.771,21.657z"/> <path style="fill:#56ACE0;" d="M316.846,127.03c-6.012,0-10.925-4.848-10.925-10.925c0-6.012,4.848-10.925,10.925-10.925h32.129 V79.063h-60.251c-6.012,0-10.925-4.848-10.925-10.925c0-6.012,4.848-10.925,10.925-10.925h60.251V43.313H182.446v70.982h38.659 c22.109,0,41.244,13.317,49.778,32.194h16.549l19.394,19.394v-19.394h42.279v-19.653L316.846,127.03L316.846,127.03z"/> <g> <path style="fill:#194F82;" d="M98.922,219.345h-22.82c-6.012,0-10.925,4.848-10.925,10.925s4.848,10.925,10.925,10.925h22.82 c6.012,0,10.925-4.848,10.925-10.925S104.934,219.345,98.922,219.345z"/> <path style="fill:#194F82;" d="M177.662,219.345h-22.82c-6.012,0-10.925,4.848-10.925,10.925s4.848,10.925,10.925,10.925h22.82 c6.012,0,10.925-4.848,10.925-10.925S183.674,219.345,177.662,219.345z"/> <path style="fill:#194F82;" d="M359.771,0H171.585c-18.036,0-32.711,14.675-32.711,32.711v103.693H32.789 c-18.036,0-32.711,14.675-32.711,32.711v125.026c0,18.101,14.61,32.776,32.711,32.776h9.503v54.691 c0,4.396,2.651,8.339,6.723,10.02c3.685,1.875,8.598,0.84,11.895-2.392l62.448-62.448h97.681c18.036,0,32.711-14.675,32.711-32.711 V190.448h15.451l62.448,62.448c3.814,3.232,7.758,4.008,11.895,2.392c4.073-1.681,6.723-5.624,6.723-10.02v-54.691h9.503 c18.036,0,32.711-14.675,32.711-32.711V32.711C392.482,14.675,377.872,0,359.771,0z M231.9,294.077 c0,6.012-4.848,10.925-10.925,10.925H118.769c-2.844,0-5.624,1.164-7.758,3.168l-46.998,46.998v-39.305 c0-6.012-4.848-10.925-10.925-10.925H32.789c-6.012,0-10.925-4.849-10.925-10.925V169.051c0-6.012,4.848-10.925,10.925-10.925 h188.251c6.012,0,10.925,4.848,10.925,10.925v125.026H231.9z M370.696,157.737c0,6.012-4.848,10.925-10.925,10.925h-20.428 c-6.012,0-10.925,4.848-10.925,10.925v39.305l-46.998-46.998c-2.004-2.004-4.784-3.168-7.758-3.168h-20.04 c-0.259-17.842-14.869-32.194-32.711-32.194h-60.444V32.711c0-6.012,4.848-10.925,10.925-10.925h188.444 c6.012,0,10.925,4.848,10.925,10.925v125.026H370.696z"/> </g> </g>
</svg>