<?xml version="1.0" encoding="iso-8859-1"?>
<!-- Uploaded to: SVG Repo, www.svgrepo.com, Generator: SVG Repo Mixer Tools -->
<svg height="800px" width="800px" version="1.1" id="Layer_1" xmlns="http://www.w3.org/2000/svg" xmlns:xlink="http://www.w3.org/1999/xlink" 
	 viewBox="0 0 392.533 392.533" xml:space="preserve">
<path style="fill:#56ACE0;" d="M196.267,21.786c-96.194,0-174.481,78.287-174.481,174.481s78.287,174.481,174.481,174.481
	s174.481-78.287,174.481-174.481S292.461,21.786,196.267,21.786z"/>
<path style="fill:#FFFFFF;" d="M196.267,65.422c-72.145,0-130.844,58.699-130.844,130.844s58.764,130.844,130.844,130.844
	s130.844-58.764,130.844-130.844S268.347,65.422,196.267,65.422z"/>
<path style="fill:#FFC10D;" d="M196.267,227.168c-17.002,0-30.901-13.834-30.901-30.901s13.834-30.901,30.901-30.901
	c17.002,0,30.901,13.834,30.901,30.901S213.269,227.168,196.267,227.168z"/>
<g>
	<path style="fill:#194F82;" d="M196.267,0C87.984,0,0,87.984,0,196.267s87.984,196.267,196.267,196.267
		s196.267-87.984,196.267-196.267S304.549,0,196.267,0z M196.267,370.747c-96.194,0-174.481-78.287-174.481-174.481
		S100.073,21.786,196.267,21.786s174.481,78.287,174.481,174.481S292.461,370.747,196.267,370.747z"/>
	<path style="fill:#194F82;" d="M196.267,43.572c-84.17,0-152.695,68.525-152.695,152.695s68.525,152.695,152.695,152.695
		s152.695-68.525,152.695-152.695S280.436,43.572,196.267,43.572z M196.267,327.111c-72.145,0-130.844-58.699-130.844-130.844
		S124.121,65.422,196.267,65.422s130.844,58.764,130.844,130.844S268.412,327.111,196.267,327.111z"/>
	<path style="fill:#194F82;" d="M256.776,185.341h-49.584v-80.937c0-6.012-4.848-10.925-10.925-10.925
		c-6.077,0-10.925,4.848-10.925,10.925v91.863c0,6.012,4.848,10.925,10.925,10.925h60.509c6.012,0,10.925-4.848,10.925-10.925
		S262.788,185.341,256.776,185.341z"/>
	<path style="fill:#194F82;" d="M222.061,244.493h-51.717c-6.012,0-10.925,4.848-10.925,10.925c0,6.012,4.848,10.925,10.925,10.925
		h51.717c6.012,0,10.925-4.849,10.925-10.925C233.051,249.341,228.073,244.493,222.061,244.493z"/>
</g>
</svg>