<?xml version="1.0" ?>
<!-- Uploaded to: SVG Repo, www.svgrepo.com, Generator: SVG Repo Mixer Tools -->
<svg width="800px" height="800px" viewBox="0 0 64 64" xmlns="http://www.w3.org/2000/svg">
<g data-name="11_Ebook" id="_11_Ebook">
<path d="M59,54H5a1,1,0,0,1-1-1V20a5.006,5.006,0,0,1,5-5H55a5.006,5.006,0,0,1,5,5V53A1,1,0,0,1,59,54Z" style="fill:#0455bf"/>
<path d="M40,52A34,34,0,0,1,6,18H6a4.933,4.933,0,0,1,.627-2.373A4.983,4.983,0,0,0,4,20V53a1,1,0,0,0,1,1H59a1,1,0,0,0,1-1V52Z" style="fill:#004787"/>
<path d="M55,50H9a1,1,0,0,1-1-1V20a1,1,0,0,1,1-1H55a1,1,0,0,1,1,1V49A1,1,0,0,1,55,50Z" style="fill:#fdfeff"/>
<path d="M55,60H9a7.008,7.008,0,0,1-7-7,1,1,0,0,1,1-1H61a1,1,0,0,1,1,1A7.008,7.008,0,0,1,55,60Z" style="fill:#0455bf"/>
<path d="M57,58H11a7,7,0,0,1-6.92-6H3a1,1,0,0,0-1,1,7.008,7.008,0,0,0,7,7H55a7,7,0,0,0,5.844-3.156A6.957,6.957,0,0,1,57,58Z" style="fill:#004787"/>
<rect height="4" style="fill:#004787" width="3" x="11" y="15"/>
<path d="M13.714,40H46.286A2.871,2.871,0,0,0,49,37V19H11V37A2.871,2.871,0,0,0,13.714,40Z" style="fill:#dfeaef"/>
<path d="M49.143,8H14.857A1.935,1.935,0,0,0,13,10V35a2.871,2.871,0,0,0,2.714,3H48.286A2.871,2.871,0,0,0,51,35V10A1.935,1.935,0,0,0,49.143,8Z" style="fill:#03a65a"/>
<path d="M18,36h5.877a30.469,30.469,0,0,1,7.392.91,3.018,3.018,0,0,0,1.459,0A30.463,30.463,0,0,1,40.123,36H46a3,3,0,0,0,3-3V8H48V33a2,2,0,0,1-2,2H40.123a31.51,31.51,0,0,0-7.638.94A1.965,1.965,0,0,1,32,36a1.992,1.992,0,0,1-.487-.06A31.481,31.481,0,0,0,23.877,35H18a2,2,0,0,1-2-2V8H15V33A3,3,0,0,0,18,36Z" style="fill:#c3d6dd"/>
<path d="M18,6H16V33a2,2,0,0,0,2,2h5.877a31.481,31.481,0,0,1,7.636.94A1.992,1.992,0,0,0,32,36a1.965,1.965,0,0,0,.485-.06A31.51,31.51,0,0,1,40.123,35H46a2,2,0,0,0,2-2V6H18Z" style="fill:#dfeaef"/>
<path d="M32,35a1,1,0,0,1-.243-.03,32.506,32.506,0,0,0-7.88-.97H18a1,1,0,0,1-1-1V6a1,1,0,0,1,1-1h5.877A34.523,34.523,0,0,1,32,5.97,34.523,34.523,0,0,1,40.123,5H46a1,1,0,0,1,1,1V33a1,1,0,0,1-1,1H40.123a32.506,32.506,0,0,0-7.88.97A1,1,0,0,1,32,35Z" style="fill:#fdfeff"/>
<rect height="2" style="fill:#dfeaef" width="4" x="21" y="13"/>
<rect height="2" style="fill:#dfeaef" width="8" x="21" y="17"/>
<rect height="2" style="fill:#dfeaef" width="8" x="21" y="21"/>
<rect height="2" style="fill:#dfeaef" width="8" x="21" y="25"/>
<rect height="2" style="fill:#dfeaef" width="8" x="35" y="13"/>
<rect height="2" style="fill:#dfeaef" width="8" x="35" y="17"/>
<rect height="2" style="fill:#dfeaef" width="8" x="35" y="21"/>
<rect height="2" style="fill:#dfeaef" width="4" x="35" y="25"/>
<rect height="2" style="fill:#dfeaef" width="2" x="27" y="13"/>
<rect height="2" style="fill:#dfeaef" width="2" x="41" y="25"/>
<polygon points="39 55 25 55 23 52 41 52 39 55" style="fill:#febc00"/>
<path d="M24.667,52H23l2,3H39l.667-1H28.4A4.492,4.492,0,0,1,24.667,52Z" style="fill:#edaa03"/>
</g>
</svg>