<?xml version="1.0" encoding="iso-8859-1"?>
<!-- Uploaded to: SVG Repo, www.svgrepo.com, Generator: SVG Repo Mixer Tools -->
<svg height="800px" width="800px" version="1.1" id="Layer_1" xmlns="http://www.w3.org/2000/svg" xmlns:xlink="http://www.w3.org/1999/xlink" 
	 viewBox="0 0 392.727 392.727" xml:space="preserve">
<path style="fill:#FFFFFF;" d="M259.976,298.537V73.826c0-6.012-4.848-10.925-10.925-10.925H32.873
	c-6.012,0-10.925,4.848-10.925,10.925v285.996c0,6.012,4.848,10.925,10.925,10.925h154.828"/>
<path style="fill:#FFC10D;" d="M227.2,84.752H54.659c-6.012,0-10.925,4.848-10.925,10.925v242.424
	c0,6.012,4.848,10.925,10.925,10.925h119.467c2.651,0,5.172-1.034,7.176-2.78v-43.119c0-6.012,4.848-10.925,10.925-10.925h43.119
	c1.745-2.004,2.78-4.461,2.78-7.176V95.677C238.061,89.6,233.212,84.752,227.2,84.752z"/>
<polygon style="fill:#FFFFFF;" points="203.152,313.988 203.152,355.362 244.525,313.988 "/>
<g>
	<path style="fill:#194F82;" d="M302.513,41.18c-6.012,0-10.925,4.848-10.925,10.925s4.848,10.925,10.925,10.925
		c6.012,0,10.925,4.848,10.925,10.925v285.996c0,6.012-4.848,10.925-10.925,10.925h-52.945c-6.012,0-10.925,4.848-10.925,10.925
		c0,6.012,4.848,10.925,10.925,10.925h52.945c18.036,0,32.711-14.675,32.711-32.711V73.826
		C335.289,55.855,320.614,41.18,302.513,41.18z"/>
	<path style="fill:#194F82;" d="M359.919,41.18c-6.012,0-10.925,4.848-10.925,10.925s4.848,10.925,10.925,10.925
		c6.012,0,10.925,4.848,10.925,10.925v285.996c0,6.012-4.848,10.925-10.925,10.925c-6.012,0-10.925,4.848-10.925,10.925
		c0,6.012,4.848,10.925,10.925,10.925c18.036,0,32.711-14.675,32.711-32.711V73.826C392.63,55.855,377.956,41.18,359.919,41.18z"/>
	<path style="fill:#194F82;" d="M281.697,303.127V73.826c0-18.036-14.675-32.711-32.711-32.711H124.8v-0.129
		C124.8,18.424,106.44,0,83.814,0S42.828,18.36,42.828,40.986v0.129h-9.956c-18.101,0-32.776,14.675-32.776,32.711v285.996
		c0,18.101,14.675,32.776,32.711,32.776h159.354c2.844,0,5.624-1.164,7.758-3.168l78.61-78.61
		C280.533,308.752,281.697,305.972,281.697,303.127z M64.614,40.986c0-10.602,8.598-19.135,19.135-19.135
		s19.135,8.598,19.135,19.135v0.129H64.55v-0.129H64.614z M203.087,355.362v-41.374h41.309L203.087,355.362z M259.911,292.202
		h-67.749c-6.012,0-10.925,4.848-10.925,10.925v67.685H32.808c-6.012,0-10.925-4.848-10.925-10.925V73.826
		c0-6.012,4.848-10.925,10.925-10.925h70.141v50.683c0,4.848-4.008,8.857-8.857,8.857s-8.857-4.008-8.857-8.857V93.673
		c0-6.012-4.848-10.925-10.925-10.925s-10.925,4.848-10.925,10.925v19.911c0,16.937,13.77,30.707,30.707,30.707
		s30.707-13.77,30.707-30.707V62.901h124.186c6.012,0,10.925,4.848,10.925,10.925L259.911,292.202L259.911,292.202z"/>
	<path style="fill:#194F82;" d="M212.137,173.059H69.786c-6.012,0-10.925,4.848-10.925,10.925s4.848,10.925,10.925,10.925h142.352
		c6.012,0,10.925-4.848,10.925-10.925S218.15,173.059,212.137,173.059z"/>
	<path style="fill:#194F82;" d="M212.137,231.434H69.786c-6.012,0-10.925,4.848-10.925,10.925s4.848,10.925,10.925,10.925h142.352
		c6.012,0,10.925-4.848,10.925-10.925S218.15,231.434,212.137,231.434z"/>
	<path style="fill:#194F82;" d="M135.079,289.745H69.786c-6.012,0-10.925,4.848-10.925,10.925s4.848,10.925,10.925,10.925h65.293
		c6.012,0,10.925-4.849,10.925-10.925S141.091,289.745,135.079,289.745z"/>
</g>
</svg>