<?xml version="1.0" encoding="iso-8859-1"?>
<!-- Uploaded to: SVG Repo, www.svgrepo.com, Generator: SVG Repo Mixer Tools -->
<svg height="800px" width="800px" version="1.1" id="Layer_1" xmlns="http://www.w3.org/2000/svg" xmlns:xlink="http://www.w3.org/1999/xlink" 
	 viewBox="0 0 392.667 392.667" xml:space="preserve">
<path style="fill:#FFFFFF;" d="M359.24,148.075H79.515c-5.301,0-9.956,3.62-11.313,8.727L22.238,333.998
	c-2.327,6.012,3.168,14.352,11.313,14.61h279.725c5.301,0,9.956-3.62,11.313-8.727l45.899-177.131
	C372.428,154.734,366.739,148.398,359.24,148.075z"/>
<path style="fill:#56ACE0;" d="M79.515,126.289h246.949v-27.41c0-6.4-5.236-11.636-11.636-11.636H187.992
	c-11.184,0-21.657-5.56-27.927-14.933l-15.386-23.079c-2.133-3.232-5.818-5.172-9.762-5.172H33.616
	c-6.4,0-11.636,5.236-11.636,11.636v192.776l25.212-97.164C50.877,136.633,64.194,126.289,79.515,126.289z"/>
<path style="fill:#FFC10D;" d="M332.024,169.926H95.741c-4.913,0-9.374,3.297-10.602,8.21l-5.172,20.04h64.129
	c6.012,0,10.925,4.848,10.925,10.925c0,6.012-4.848,10.925-10.925,10.925H74.343l-7.37,28.444h33.552
	c6.012,0,10.925,4.848,10.925,10.925c0,6.077-4.848,10.925-10.925,10.925H61.349L50.23,313.117
	c-1.745,6.853,3.426,13.705,10.602,13.705h236.283c4.913,0,9.374-3.297,10.602-8.21l34.974-135.046
	C344.372,176.649,339.135,169.926,332.024,169.926z"/>
<path style="fill:#194F82;" d="M359.24,126.289h-10.925v-27.41c0-18.489-14.998-33.487-33.487-33.487H187.992
	c-3.943,0-7.564-1.939-9.762-5.172l-15.386-23.079c-6.271-9.374-16.614-14.933-27.927-14.933H33.487
	C14.998,22.208,0,37.206,0,55.695c0,0,0,281.535,0.065,281.665c1.034,20.234,15.968,33.099,33.487,33.099h279.79
	c15.321,0,28.574-10.343,32.453-25.083l45.899-177.131C396.8,146.071,381.22,126.936,359.24,126.289z M21.851,55.695
	c0-6.4,5.236-11.636,11.636-11.636h101.43c3.943,0,7.564,1.939,9.762,5.172l15.386,23.079c6.271,9.374,16.614,14.933,27.927,14.933
	h126.836c6.4,0,11.636,5.236,11.636,11.636v27.41H79.515c-15.321,0-28.574,10.343-32.453,25.083l-25.212,97.164
	C21.851,248.536,21.851,55.695,21.851,55.695z M370.489,162.685L324.59,339.881c-1.293,5.172-5.947,8.727-11.313,8.727H33.616
	c-8.21-0.259-13.705-8.598-11.313-14.61l45.899-177.131c1.293-5.172,5.947-8.727,11.313-8.727H359.24
	C366.739,148.398,372.428,154.734,370.489,162.685z"/>
</svg>