<?xml version="1.0" encoding="utf-8"?><!-- Uploaded to: SVG Repo, www.svgrepo.com, Generator: SVG Repo Mixer Tools -->
<svg fill="#000000" width="800px" height="800px" viewBox="0 0 24 24" id="gps-disable-3" data-name="Flat Line" xmlns="http://www.w3.org/2000/svg" class="icon flat-line"><path id="secondary" d="M19,12A7,7,0,0,1,7.05,17L17,7.05A7,7,0,0,1,19,12Z" style="fill: rgb(44, 169, 188); stroke-width: 2;"></path><path id="primary" d="M5.11,13.23A7.12,7.12,0,0,1,5,12a7,7,0,0,1,7-7,7.12,7.12,0,0,1,1.23.11" style="fill: none; stroke: rgb(0, 0, 0); stroke-linecap: round; stroke-linejoin: round; stroke-width: 2;"></path><path id="primary-2" data-name="primary" d="M21,12H19m-7,9V19M12,3V5M3,12H5M7.05,17a7,7,0,0,0,3.72,1.94A7.12,7.12,0,0,0,12,19a7,7,0,0,0,7-7,7.12,7.12,0,0,0-.11-1.23A7,7,0,0,0,17,7.05ZM19,5,5,19" style="fill: none; stroke: rgb(0, 0, 0); stroke-linecap: round; stroke-linejoin: round; stroke-width: 2;"></path></svg>