<?xml version="1.0" encoding="iso-8859-1"?>
<!-- Uploaded to: SVG Repo, www.svgrepo.com, Generator: SVG Repo Mixer Tools -->
<svg version="1.1" id="Layer_1" xmlns="http://www.w3.org/2000/svg" xmlns:xlink="http://www.w3.org/1999/xlink" 
	 viewBox="0 0 392.727 392.727" xml:space="preserve">
<polyline style="fill:#FFFFFF;" points="278.756,130.424 278.756,22.077 113.778,22.077 113.778,130.424 "/>
<rect x="135.564" y="43.863" style="fill:#56ACE0;" width="121.341" height="86.497"/>
<g>
	<polygon style="fill:#FFC10D;" points="110.028,152.21 93.931,188.865 298.667,188.865 282.57,152.21 	"/>
	<rect x="21.851" y="327.402" style="fill:#FFC10D;" width="43.572" height="43.572"/>
</g>
<rect x="174.481" y="327.402" style="fill:#56ACE0;" width="43.572" height="43.572"/>
<rect x="327.176" y="327.402" style="fill:#FFC10D;" width="43.572" height="43.572"/>
<path style="fill:#194F82;" d="M381.737,305.487h-21.85v-47.451c0-6.012-4.848-10.925-10.925-10.925H207.257v-36.525H315.41
	c7.822,0,13.188-8.339,9.956-15.321l-24.76-56.307V11.022c0-6.012-4.913-10.925-10.99-10.925H102.917
	c-5.947,0-10.925,4.848-10.925,10.925v127.806l-24.76,56.307c-2.844,6.012,1.293,15.321,9.956,15.321h108.154v36.525H43.636
	c-6.012,0-10.925,4.848-10.925,10.925v47.451H10.925C4.913,305.358,0,310.206,0,316.283v65.422c0,6.012,4.848,10.925,10.925,10.925
	h65.422c6.012,0,10.925-4.848,10.925-10.925v-65.422c0-6.012-4.848-10.925-10.925-10.925H54.626v-36.525h130.844v36.525h-21.786
	c-6.012,0-10.925,4.848-10.925,10.925v65.422c0,6.012,4.848,10.925,10.925,10.925h65.422c6.012,0,10.925-4.848,10.925-10.925
	v-65.422c0-6.012-4.848-10.925-10.925-10.925h-21.786v-36.525h130.844v36.525H316.38c-6.012,0-10.925,4.848-10.925,10.925v65.422
	c0,6.012,4.848,10.925,10.925,10.925h65.422c6.012,0,10.925-4.848,10.925-10.925v-65.422
	C392.598,310.335,387.749,305.487,381.737,305.487z M65.487,370.909H21.851v-43.572h43.572v43.572H65.487z M218.117,370.909h-43.572
	v-43.572h43.572V370.909z M113.907,21.947h164.978v108.347H113.907V21.947z M93.931,188.671l16.097-36.655H282.57l16.097,36.655
	H93.931z M370.812,370.909H327.24v-43.572h43.572V370.909z"/>
</svg>