<?xml version="1.0" encoding="iso-8859-1"?>
<!-- Uploaded to: SVG Repo, www.svgrepo.com, Generator: SVG Repo Mixer Tools -->
<svg height="800px" width="800px" version="1.1" id="Layer_1" xmlns="http://www.w3.org/2000/svg" xmlns:xlink="http://www.w3.org/1999/xlink" 
	 viewBox="0 0 392.609 392.609" xml:space="preserve">
<path style="fill:#FFFFFF;" d="M273.713,147.774c0,69.495-56.501,125.931-125.931,125.931c-69.495,0-125.931-56.501-125.931-125.931
	c0-69.495,56.501-125.931,125.931-125.931C217.212,21.843,273.713,78.344,273.713,147.774z"/>
<path style="fill:#56ACE0;" d="M370.747,348.695c0,1.422-1.616,6.271-7.176,12.283c-6.206,6.659-12.477,9.762-14.739,9.762h-0.065
	c-19.459-1.616-61.996-43.184-109.576-106.796c0-0.065,0-0.065,0-0.129c9.18-7.24,17.455-15.515,24.63-24.63
	c0.065,0,0.065,0,0.129,0C327.564,286.699,369.131,329.301,370.747,348.695z"/>
<path style="fill:#FFC10D;" d="M208.679,86.877l-14.481,14.481c-17.131,17.131-46.545,5.042-46.545-19.265V61.6
	c-49.002,0-88.372,40.792-86.109,90.246c2.004,43.895,38.141,80.032,82.036,82.036c49.455,2.263,90.246-37.172,90.246-86.109
	C233.956,124.049,224.323,102.522,208.679,86.877z"/>
<path style="fill:#194F82;" d="M276.105,220.954c12.347-21.527,19.459-46.545,19.459-73.18c0-81.455-66.327-147.717-147.846-147.717
	S0,66.32,0,147.904s66.327,147.717,147.717,147.717c26.57,0,51.523-7.111,73.18-19.459
	c39.822,53.333,91.863,113.519,126.061,116.364c12.283,0.517,22.885-6.723,32.776-16.743c5.172-5.624,13.77-16.937,12.8-28.768
	C389.624,312.881,329.438,260.776,276.105,220.954z M147.717,273.77c-69.495,0-125.931-56.501-125.931-125.931
	S78.287,21.908,147.717,21.908s125.931,56.501,125.931,125.931S217.212,273.77,147.717,273.77z M363.572,360.978
	c-6.206,6.659-12.412,9.762-14.739,9.762h-0.065c-19.459-1.616-61.996-43.184-109.576-106.796c0-0.065,0-0.065,0-0.129
	c9.18-7.24,17.455-15.515,24.63-24.63c0.065,0,0.065,0,0.129,0c63.612,47.58,105.18,90.182,106.796,109.576
	C370.747,350.118,369.131,354.966,363.572,360.978z"/>
</svg>