<?xml version="1.0" encoding="iso-8859-1"?>
<!-- Uploaded to: SVG Repo, www.svgrepo.com, Generator: SVG Repo Mixer Tools -->
<svg version="1.1" id="Layer_1" xmlns="http://www.w3.org/2000/svg" xmlns:xlink="http://www.w3.org/1999/xlink" 
	 viewBox="0 0 508 508" xml:space="preserve">
<rect x="28.2" y="115.15" style="fill:#FFFFFF;" width="451.6" height="277.9"/>
<path style="fill:#FFC10D;" d="M55.2,354.75v-201.4c2.2,0,4-1.8,4-4h389.6c0,2.2,1.8,4,4,4v201.4c-2.2,0-4,1.8-4,4H59.2
	C59.2,356.55,57.4,354.75,55.2,354.75z"/>
<path style="fill:#FFFFFF;" d="M254,211.25c-18.3,0-33.2,19.2-33.2,42.8s14.9,42.8,33.2,42.8s33.2-19.2,33.2-42.8
	C287.2,230.45,272.3,211.25,254,211.25z"/>
<g>
	<path style="fill:#194F82;" d="M493.9,86.85H14.1c-7.8,0-14.1,6.4-14.1,14.2v306c0,7.8,6.3,14.1,14.1,14.1h479.8
		c7.8,0,14.1-6.3,14.1-14.1v-306C508,93.25,501.7,86.85,493.9,86.85z M479.8,392.95H28.2v-277.8h451.6L479.8,392.95L479.8,392.95z"
		/>
	<path style="fill:#194F82;" d="M254,325.05c33.9,0,61.5-31.9,61.5-71s-27.6-71-61.5-71s-61.5,31.8-61.5,71S220.1,325.05,254,325.05
		z M254,211.25c18.3,0,33.2,19.2,33.2,42.8s-14.9,42.8-33.2,42.8s-33.2-19.2-33.2-42.8C220.8,230.45,235.7,211.25,254,211.25z"/>
	<path style="fill:#194F82;" d="M373.1,268.15h17.7c7.8,0,14.1-6.3,14.1-14.1c0-7.8-6.3-14.1-14.1-14.1h-17.7
		c-7.8,0-14.1,6.3-14.1,14.1S365.3,268.15,373.1,268.15z"/>
	<path style="fill:#194F82;" d="M117.3,268.15H135c7.8,0,14.1-6.3,14.1-14.1c0-7.8-6.3-14.1-14.1-14.1h-17.7
		c-7.8,0-14.1,6.3-14.1,14.1C103.1,261.85,109.5,268.15,117.3,268.15z"/>
</g>
</svg>