<?xml version="1.0" encoding="iso-8859-1"?>
<!-- Uploaded to: SVG Repo, www.svgrepo.com, Generator: SVG Repo Mixer Tools -->
<svg version="1.1" id="Layer_1" xmlns="http://www.w3.org/2000/svg" xmlns:xlink="http://www.w3.org/1999/xlink" 
	 viewBox="0 0 507.9 507.9" xml:space="preserve">
<path style="fill:#FFFFFF;" d="M400.5,426.5c7.8,0,14.1-6.3,14.1-14.1V42.3c0-7.8-6.3-14.1-14.1-14.1H42.3
	c-7.8,0-14.1,6.3-14.1,14.1v370.1c0,7.8,6.3,14.1,14.1,14.1H400.5z"/>
<rect x="84.7" y="84.7" style="fill:#56ACE0;" width="273.5" height="73.1"/>
<path style="fill:#FFC10D;" d="M442.8,77.6v334.1c0,23.7-19.3,43-43,43H93.4v10.9c0,7.8,6.3,14.1,14.1,14.1h358.2
	c7.8,0,14.1-6.3,14.1-14.1V91.7c0-7.8-6.3-14.1-14.1-14.1H442.8z"/>
<g>
	<path style="fill:#194F82;" d="M465.7,49.4h-22.8v-7.1c0-23.3-19-42.3-42.3-42.3H42.3C19,0,0,19,0,42.3v370.1
		c0,23.3,19,42.3,42.3,42.3h22.8v10.9c0,23.3,19,42.3,42.3,42.3h358.2c23.3,0,42.3-19,42.3-42.3V91.7C508,68.4,489,49.4,465.7,49.4z
		 M28.2,412.4V42.3c0-7.8,6.3-14.1,14.1-14.1h358.2c7.8,0,14.1,6.3,14.1,14.1v370.1c0,7.8-6.3,14.1-14.1,14.1H42.3
		C34.6,426.5,28.2,420.2,28.2,412.4z M479.8,465.7c0,7.8-6.3,14.1-14.1,14.1H107.5c-7.8,0-14.1-6.3-14.1-14.1v-10.9h307.1
		c23.3,0,42.3-19,42.3-42.3V77.6h22.8c7.8,0,14.1,6.3,14.1,14.1v374H479.8z"/>
	<path style="fill:#194F82;" d="M372.3,56.4H70.6c-7.8,0-14.1,6.3-14.1,14.1v101.4c0,7.8,6.3,14.1,14.1,14.1h301.7
		c7.8,0,14.1-6.3,14.1-14.1V70.6C386.4,62.8,380.1,56.4,372.3,56.4z M358.2,157.8H84.7V84.7h273.5V157.8z"/>
	<path style="fill:#194F82;" d="M185.4,216.3H70.6c-7.8,0-14.1,6.3-14.1,14.1s6.3,14.1,14.1,14.1h114.8c7.8,0,14.1-6.3,14.1-14.1
		S193.2,216.3,185.4,216.3z"/>
	<path style="fill:#194F82;" d="M185.4,269.6H70.6c-7.8,0-14.1,6.3-14.1,14.1c0,7.8,6.3,14.1,14.1,14.1h114.8
		c7.8,0,14.1-6.3,14.1-14.1C199.5,276,193.2,269.6,185.4,269.6z"/>
	<path style="fill:#194F82;" d="M185.4,322.9H70.6c-7.8,0-14.1,6.3-14.1,14.1c0,7.8,6.3,14.1,14.1,14.1h114.8
		c7.8,0,14.1-6.3,14.1-14.1C199.5,329.3,193.2,322.9,185.4,322.9z"/>
	<path style="fill:#194F82;" d="M185.4,376.2H70.6c-7.8,0-14.1,6.3-14.1,14.1c0,7.8,6.3,14.1,14.1,14.1h114.8
		c7.8,0,14.1-6.3,14.1-14.1C199.5,382.6,193.2,376.2,185.4,376.2z"/>
	<path style="fill:#194F82;" d="M372.3,216.3H257.5c-7.8,0-14.1,6.3-14.1,14.1s6.3,14.1,14.1,14.1h114.8c7.8,0,14.1-6.3,14.1-14.1
		S380.1,216.3,372.3,216.3z"/>
	<path style="fill:#194F82;" d="M372.3,269.6H257.5c-7.8,0-14.1,6.3-14.1,14.1c0,7.8,6.3,14.1,14.1,14.1h114.8
		c7.8,0,14.1-6.3,14.1-14.1C386.4,276,380.1,269.6,372.3,269.6z"/>
	<path style="fill:#194F82;" d="M372.3,322.9H257.5c-7.8,0-14.1,6.3-14.1,14.1c0,7.8,6.3,14.1,14.1,14.1h114.8
		c7.8,0,14.1-6.3,14.1-14.1C386.4,329.3,380.1,322.9,372.3,322.9z"/>
	<path style="fill:#194F82;" d="M372.3,376.2H257.5c-7.8,0-14.1,6.3-14.1,14.1c0,7.8,6.3,14.1,14.1,14.1h114.8
		c7.8,0,14.1-6.3,14.1-14.1C386.4,382.6,380.1,376.2,372.3,376.2z"/>
</g>
</svg>