<?xml version="1.0" encoding="iso-8859-1"?>
<!-- Uploaded to: SVG Repo, www.svgrepo.com, Generator: SVG Repo Mixer Tools -->
<svg version="1.1" id="Layer_1" xmlns="http://www.w3.org/2000/svg" xmlns:xlink="http://www.w3.org/1999/xlink" 
	 viewBox="0 0 512 512" xml:space="preserve">
<path style="fill:#3B67AA;" d="M373.029,75.393v419.067h104.202c19.203,0,34.769-15.566,34.769-34.769V75.393H373.029z"/>
<rect x="373.029" y="75.389" style="fill:#0094E2;" width="94.386" height="419.067"/>
<path style="fill:#E0E0E0;" d="M422.832,459.69V75.393V17.541H0v442.149c0,19.203,15.567,34.769,34.769,34.769H457.6
	C438.398,494.459,422.832,478.892,422.832,459.69z"/>
<path style="fill:#F1F1F1;" d="M211.416,17.541H0v442.149c0,19.203,15.567,34.769,34.769,34.769h176.646V17.541H211.416z"/>
<g>
	<rect x="71.711" y="80.969" style="fill:#3B67AA;" width="279.406" height="31.347"/>
	<rect x="71.711" y="134.092" style="fill:#3B67AA;" width="279.406" height="31.347"/>
	<rect x="71.711" y="187.204" style="fill:#3B67AA;" width="279.406" height="31.347"/>
	<rect x="71.711" y="399.684" style="fill:#3B67AA;" width="279.406" height="31.347"/>
	<path style="fill:#3B67AA;" d="M350.858,377.912H71.974V240.327h278.884L350.858,377.912L350.858,377.912z M103.321,346.565h216.19
		v-74.892h-216.19V346.565z"/>
</g>
</svg>