<!DOCTYPE svg PUBLIC "-//W3C//DTD SVG 1.1//EN" "http://www.w3.org/Graphics/SVG/1.1/DTD/svg11.dtd">
<!-- Uploaded to: SVG Repo, www.svgrepo.com, Transformed by: SVG Repo Mixer Tools -->
<svg version="1.1" id="Layer_1" xmlns="http://www.w3.org/2000/svg" xmlns:xlink="http://www.w3.org/1999/xlink" viewBox="0 0 392.533 392.533" xml:space="preserve" width="64px" height="64px" fill="#000000">
<g id="SVGRepo_bgCarrier" stroke-width="0"/>
<g id="SVGRepo_tracerCarrier" stroke-linecap="round" stroke-linejoin="round"/>
<g id="SVGRepo_iconCarrier"> <path style="fill:#FFFFFF;" d="M41.18,359.564c0,6.012,4.848,10.925,10.925,10.925h288.323c6.012,0,10.925-4.848,10.925-10.925 V211.588c0-6.012-4.848-10.925-10.925-10.925H52.105c-6.012,0-10.925,4.848-10.925,10.925"/> <rect x="62.966" y="222.448" style="fill:#FFC10D;" width="266.602" height="126.19"/> <path style="fill:#56ACE0;" d="M304.032,178.877v-49.519c0-59.41-48.356-107.766-107.766-107.766S88.501,69.883,88.501,129.358 v49.519h21.786v-49.519c0-47.451,38.529-85.98,85.98-85.98s85.98,38.529,85.98,85.98v49.519H304.032z"/> <path style="fill:#FFFFFF;" d="M196.267,248.242c-10.279,0-18.683,8.339-18.683,18.683c0,10.279,8.339,18.683,18.683,18.683 c10.279,0,18.683-8.339,18.683-18.683C214.949,256.711,206.545,248.242,196.267,248.242z"/> <g> <path style="fill:#194F82;" d="M196.267,226.78c-22.303,0-40.469,18.166-40.469,40.469c0,18.554,12.541,34.133,29.608,38.917 v27.798c0,6.012,4.848,10.925,10.925,10.925s10.925-4.849,10.925-10.925v-27.798c17.002-4.784,29.608-20.428,29.608-38.917 C236.735,244.945,218.57,226.78,196.267,226.78z M196.267,285.996c-10.279,0-18.683-8.339-18.683-18.683 c0-10.279,8.339-18.683,18.683-18.683c10.279,0,18.683,8.339,18.683,18.683C214.949,277.527,206.545,285.996,196.267,285.996z"/> <path style="fill:#194F82;" d="M340.428,179.2h-14.61v-49.519C325.947,58.182,267.766,0,196.267,0S66.586,58.182,66.586,129.681 V179.2H52.105c-18.036,0-32.711,14.675-32.711,32.711v147.911c0,18.036,14.675,32.711,32.711,32.711h288.323 c18.036,0,32.711-14.675,32.711-32.711V211.846C373.139,193.875,358.465,179.2,340.428,179.2z M88.501,129.681 c0-59.41,48.356-107.766,107.766-107.766s107.766,48.291,107.766,107.766V179.2h-21.786v-49.519c0-47.45-38.529-85.98-85.98-85.98 s-85.98,38.529-85.98,85.98V179.2H88.501V129.681L88.501,129.681z M260.461,129.681V179.2H132.073v-49.519 c0-35.362,28.832-64.194,64.194-64.194S260.461,94.19,260.461,129.681z M351.354,359.822c0,6.012-4.848,10.925-10.925,10.925 H52.105c-6.012,0-10.925-4.848-10.925-10.925v-27.798h34.909c6.012,0,10.925-4.848,10.925-10.925 c0-6.012-4.848-10.925-10.925-10.925H41.18v-21.786h56.824c6.012,0,10.925-4.848,10.925-10.925c0-6.012-4.848-10.925-10.925-10.925 H41.18v-54.691c0-6.012,4.848-10.925,10.925-10.925h288.323c6.012,0,10.925,4.848,10.925,10.925V359.822z"/> </g> </g>
</svg>