<?xml version="1.0" encoding="iso-8859-1"?>
<!-- Uploaded to: SVG Repo, www.svgrepo.com, Generator: SVG Repo Mixer Tools -->
<svg version="1.1" id="Layer_1" xmlns="http://www.w3.org/2000/svg" xmlns:xlink="http://www.w3.org/1999/xlink" 
	 viewBox="0 0 310 310" xml:space="preserve">
<g id="XMLID_1357_">
	<path id="XMLID_1358_" style="fill:#EA348B;" d="M85,40c0,5.522-4.477,10-10,10l0,0c-5.523,0-10-4.478-10-10V10
		c0-5.523,4.477-10,10-10l0,0c5.523,0,10,4.477,10,10V40z"/>
	<polygon id="XMLID_1359_" style="fill:#FFE98F;" points="45,70 75,80 105,70 85,20 65,20 	"/>
	<path id="XMLID_1360_" style="fill:#FFC170;" d="M45,260v20c0,16.568,13.432,30,30,30s30-13.432,30-30v-20H45z"/>
	<rect id="XMLID_1361_" x="45" y="70" style="fill:#EA348B;" width="60" height="210"/>
	<rect id="XMLID_1362_" x="45" y="70" style="fill:#AF2768;" width="30" height="210"/>
	<rect id="XMLID_1363_" x="45" y="250" style="fill:#00D7DF;" width="60" height="30"/>
	<rect id="XMLID_1364_" x="45" y="250" style="fill:#00A0A6;" width="30" height="30"/>
	<path id="XMLID_1365_" style="fill:#FF5023;" d="M165,40c0,5.522-4.477,10-10,10l0,0c-5.523,0-10-4.478-10-10V10
		c0-5.523,4.477-10,10-10l0,0c5.523,0,10,4.477,10,10V40z"/>
	<polygon id="XMLID_1366_" style="fill:#FFE98F;" points="125,70 155,80 185,70 165,20 145,20 	"/>
	<path id="XMLID_1367_" style="fill:#FFC170;" d="M125,260v20c0,16.568,13.432,30,30,30s30-13.432,30-30v-20H125z"/>
	<rect id="XMLID_1368_" x="125" y="70" style="fill:#FF9811;" width="60" height="210"/>
	<rect id="XMLID_1369_" x="125" y="70" style="fill:#FF5023;" width="30" height="210"/>
	<rect id="XMLID_1370_" x="125" y="250" style="fill:#00D7DF;" width="60" height="30"/>
	<rect id="XMLID_1371_" x="125" y="250" style="fill:#00A0A6;" width="30" height="30"/>
	<path id="XMLID_1372_" style="fill:#FF9811;" d="M245,40c0,5.522-4.477,10-10,10l0,0c-5.523,0-10-4.478-10-10V10
		c0-5.523,4.477-10,10-10l0,0c5.523,0,10,4.477,10,10V40z"/>
	<polygon id="XMLID_1373_" style="fill:#FFE98F;" points="205,70 235,80 265,70 245,20 225,20 	"/>
	<path id="XMLID_1374_" style="fill:#FFC170;" d="M205,260v20c0,16.568,13.432,30,30,30s30-13.432,30-30v-20H205z"/>
	<rect id="XMLID_1375_" x="205" y="70" style="fill:#FFDA44;" width="60" height="210"/>
	<rect id="XMLID_1376_" x="205" y="70" style="fill:#FF9811;" width="30" height="210"/>
	<rect id="XMLID_1377_" x="205" y="250" style="fill:#00D7DF;" width="60" height="30"/>
	<rect id="XMLID_1378_" x="205" y="250" style="fill:#00A0A6;" width="30" height="30"/>
</g>
</svg>