<?xml version="1.0" encoding="iso-8859-1"?>
<!-- Uploaded to: SVG Repo, www.svgrepo.com, Generator: SVG Repo Mixer Tools -->
<svg height="800px" width="800px" version="1.1" id="Layer_1" xmlns="http://www.w3.org/2000/svg" xmlns:xlink="http://www.w3.org/1999/xlink" 
	 viewBox="0 0 392.507 392.507" xml:space="preserve">
<path style="fill:#FFFFFF;" d="M116.981,340.978l-90.44,25.083l25.018-90.505c7.24,10.925,28.509,22.044,46.804,18.618
	C94.549,323.523,115.688,339.943,116.981,340.978z"/>
<g>
	<path style="fill:#56ACE0;" d="M70.371,264.048c-17.002-16.873-3.749-38.723-3.943-38.788l46.739-46.739h43.83
		c6.012,0,10.925-4.848,10.925-10.925c0-6.012-4.848-10.925-10.925-10.925h-22.044l18.036-18.036h54.691
		c6.012,0,10.925-4.848,10.925-10.925c0-6.012-4.848-10.925-10.925-10.925h-32.905l38.529-38.529l42.731,42.731L113.102,264.048
		C101.337,275.814,82.201,275.814,70.371,264.048z"/>
	<path style="fill:#56ACE0;" d="M271.551,136.436l42.731,42.731L165.919,327.531c0,0-21.786,9.568-37.43-5.301
		c-9.18-8.792-14.158-28.574,0-42.731L271.551,136.436z"/>
</g>
<path style="fill:#FFC10D;" d="M365.999,127.451l-36.331,36.331l-50.36-50.36l-50.36-50.36l36.331-36.331
	c6.012-6.012,16.614-6.012,22.626,0l78.222,78.222C372.27,110.966,372.27,121.18,365.999,127.451z"/>
<path style="fill:#194F82;" d="M381.45,89.374l-78.222-78.222c-15.321-14.869-38.271-14.869-53.463,0L47.615,213.301
	c-1.293,1.293-2.327,3.038-2.78,4.784L0.424,378.796c-1.099,3.814,0,7.822,2.78,10.602c2.78,2.715,6.271,3.685,10.602,2.78
	l160.711-44.412c1.745-0.517,3.491-1.487,4.784-2.78L381.45,142.836C396.189,128.097,396.189,104.113,381.45,89.374z
	 M66.428,225.261l46.739-46.739h43.83c6.012,0,10.925-4.848,10.925-10.925c0-6.012-4.848-10.925-10.925-10.925h-22.044
	l18.036-18.036h54.691c6.012,0,10.925-4.848,10.925-10.925c0-6.012-4.848-10.925-10.925-10.925h-32.905l38.529-38.529l42.731,42.731
	L113.102,264.048c-11.766,11.766-30.901,11.766-42.731,0C53.369,247.176,66.622,225.325,66.428,225.261z M26.541,366.061
	l25.018-90.505c7.24,10.925,28.509,22.044,46.804,18.618c-3.814,29.35,17.325,45.77,18.618,46.804L26.541,366.061z M165.919,327.531
	c0,0-21.786,9.568-37.43-5.301c-9.18-8.792-14.158-28.574,0-42.731l143.063-143.063l42.731,42.731L165.919,327.531z
	 M365.999,127.451l-36.331,36.331l-50.36-50.36l-50.36-50.36l36.331-36.331c6.012-6.012,16.614-6.012,22.626,0l78.222,78.222
	C372.27,110.966,372.27,121.18,365.999,127.451z"/>
</svg>