<?xml version="1.0" encoding="iso-8859-1"?>
<!-- Uploaded to: SVG Repo, www.svgrepo.com, Generator: SVG Repo Mixer Tools -->
<svg height="800px" width="800px" version="1.1" id="Layer_1" xmlns="http://www.w3.org/2000/svg" xmlns:xlink="http://www.w3.org/1999/xlink" 
	 viewBox="0 0 392.47 392.47" xml:space="preserve">
<g>
	<path style="fill:#FFFFFF;" d="M271.58,332.057c-27.152,21.721-60.768,33.552-95.871,33.552
		c-84.945,0-153.923-69.107-153.923-153.923c0-88.242,70.271-147.459,143.063-153.535v157.867c0,2.78,1.099,5.495,3.038,7.499
		L271.58,332.057z"/>
	<path style="fill:#FFFFFF;" d="M350.901,127.386l-133.43,42.861V27.378C277.269,31.645,329.956,71.144,350.901,127.386z"/>
</g>
<path style="fill:#56ACE0;" d="M370.683,211.75c0.065,39.176-15.127,77.123-41.956,105.568l-92.057-96.194l130.521-41.956
	C369.519,189.9,370.683,200.825,370.683,211.75z"/>
<path style="fill:#FFC10D;" d="M142.998,229.14V83.621c-33.939,8.663-62.513,30.513-80.226,59.733h41.309
	c6.012,0,10.925,4.848,10.925,10.925c0,6.012-4.848,10.925-10.925,10.925H52.17c-2.78,7.37-4.978,14.933-6.335,22.82h30.901
	c6.012,0,10.925,4.848,10.925,10.925c0,6.077-4.848,10.925-10.925,10.925H43.636c0,0.646-0.065,1.293-0.065,1.939
	c0,72.857,59.281,132.137,132.137,132.137c21.851,0,43.119-5.43,62.125-15.451L142.998,229.14z"/>
<g>
	<path style="fill:#194F82;" d="M209.842,195.588l158.19-50.877c5.624-1.745,8.792-7.822,7.111-13.446
		c-21.85-74.279-91.152-126.19-168.598-126.19c-6.012,0-10.925,4.848-10.925,10.925v169.18
		C195.62,193.391,204.089,197.851,209.842,195.588z M217.471,27.378c59.798,4.267,112.485,43.766,133.43,100.008l-133.43,42.861
		L217.471,27.378L217.471,27.378z"/>
	<path style="fill:#194F82;" d="M385.422,162.037c-1.939-6.4-7.952-8.986-13.834-7.37l-158.19,50.877
		c-7.37,2.263-10.279,11.119-4.59,17.907l111.709,116.816c4.719,4.331,10.796,4.59,15.321,0.453
		c36.008-33.228,56.63-80.291,56.63-129.228C392.533,194.877,390.141,178.199,385.422,162.037z M328.727,317.318l-92.057-96.194
		l130.521-41.956c2.327,10.731,3.491,21.657,3.491,32.582C370.747,250.926,355.556,288.873,328.727,317.318z"/>
	<path style="fill:#194F82;" d="M295.305,325.334L186.634,211.685V46.837c0-6.012-4.848-10.925-10.925-10.925
		C78.804,35.976,0,114.78,0,211.685s78.804,175.709,175.709,175.709c44.283,0,86.562-16.549,119.079-46.545
		C299.766,336.453,299.184,329.277,295.305,325.334z M175.709,365.609c-84.945,0-153.923-69.107-153.923-153.923
		c0-88.242,70.271-147.459,143.063-153.535v157.867c0,2.78,1.099,5.495,3.038,7.499L271.58,332.057
		C244.428,353.778,210.812,365.609,175.709,365.609z"/>
</g>
</svg>