<?xml version="1.0" encoding="iso-8859-1"?>
<!-- Uploaded to: SVG Repo, www.svgrepo.com, Generator: SVG Repo Mixer Tools -->
<svg version="1.1" id="Layer_1" xmlns="http://www.w3.org/2000/svg" xmlns:xlink="http://www.w3.org/1999/xlink" 
	 viewBox="0 0 392.727 392.727" xml:space="preserve">
<rect x="171.055" y="307.2" style="fill:#FFFFFF;" width="50.683" height="63.612"/>
<g>
	<rect x="21.915" y="189.737" style="fill:#56ACE0;" width="60.057" height="181.075"/>
	<rect x="310.756" y="189.737" style="fill:#56ACE0;" width="60.057" height="181.075"/>
</g>
<path style="fill:#FFC10D;" d="M103.822,370.877h45.446v-74.473c0-6.012,4.848-10.925,10.925-10.925h72.533
	c6.012,0,10.925,4.848,10.925,10.925v74.473h45.382v-269.77H103.822V370.877z"/>
<circle style="fill:#FFFFFF;" cx="196.396" cy="191.677" r="50.36"/>
<g>
	<path style="fill:#194F82;" d="M196.396,118.885c-40.21,0-72.792,32.582-72.792,72.792s32.582,72.792,72.792,72.792
		s72.792-32.582,72.792-72.792S236.606,118.885,196.396,118.885z M196.396,242.036c-27.798,0-50.36-22.562-50.36-50.36
		s22.562-50.36,50.36-50.36s50.36,22.562,50.36,50.36S224.194,242.036,196.396,242.036z"/>
	<path style="fill:#194F82;" d="M51.976,239.451c6.012,0,10.925-4.848,10.925-10.925v-12.671c0-6.012-4.848-10.925-10.925-10.925
		s-10.925,4.848-10.925,10.925v12.671C41.05,234.537,45.964,239.451,51.976,239.451z"/>
	<path style="fill:#194F82;" d="M51.976,297.568c6.012,0,10.925-4.849,10.925-10.925v-12.671c0-6.012-4.848-10.925-10.925-10.925
		s-10.925,4.848-10.925,10.925v12.671C41.05,292.655,45.964,297.568,51.976,297.568z"/>
	<path style="fill:#194F82;" d="M51.976,355.685c6.012,0,10.925-4.849,10.925-10.925v-12.671c0-6.012-4.848-10.925-10.925-10.925
		s-10.925,4.848-10.925,10.925v12.671C41.05,350.772,45.964,355.685,51.976,355.685z"/>
	<path style="fill:#194F82;" d="M340.816,239.451c6.012,0,10.925-4.848,10.925-10.925v-12.671c0-6.012-4.848-10.925-10.925-10.925
		c-6.012,0-10.925,4.848-10.925,10.925v12.671C329.891,234.537,334.804,239.451,340.816,239.451z"/>
	<path style="fill:#194F82;" d="M340.816,297.568c6.012,0,10.925-4.849,10.925-10.925v-12.671c0-6.012-4.848-10.925-10.925-10.925
		c-6.012,0-10.925,4.848-10.925,10.925v12.671C329.891,292.655,334.804,297.568,340.816,297.568z"/>
	<path style="fill:#194F82;" d="M340.816,355.685c6.012,0,10.925-4.849,10.925-10.925v-12.671c0-6.012-4.848-10.925-10.925-10.925
		c-6.012,0-10.925,4.848-10.925,10.925v12.671C329.891,350.772,334.804,355.685,340.816,355.685z"/>
</g>
<polygon style="fill:#FFFFFF;" points="295.37,21.915 97.422,21.915 54.626,79.257 338.166,79.257 "/>
<g>
	<path style="fill:#194F82;" d="M381.802,167.952h-71.046v-66.909h49.131c9.374-0.388,13.834-9.956,8.727-17.455L311.661,7.24
		c-3.814-4.655-9.244-6.853-16.097-7.24H97.099c-6.271,0.323-11.895,2.263-16.097,7.24L24.178,83.588
		c-5.689,8.857,1.099,17.519,8.727,17.455h49.131v66.909H10.99c-6.012,0-10.925,4.848-10.925,10.925v202.925
		c0,6.012,4.848,10.925,10.925,10.925h370.747c6.012,0,10.925-4.848,10.925-10.925V178.877
		C392.663,172.8,387.814,167.952,381.802,167.952z M370.877,370.877h-60.121V189.737h60.057v181.139H370.877z M221.737,307.2v63.612
		h-50.683V307.2H221.737L221.737,307.2z M288.97,370.877h-45.446v-74.473c0-6.012-4.848-10.925-10.925-10.925h-72.533
		c-6.012,0-10.925,4.848-10.925,10.925v74.473h-45.382v-269.77h185.147v269.77H288.97z M54.626,79.257l42.796-57.341H295.37
		l42.796,57.341H54.626z M82.036,370.877H21.915V189.737h60.121V370.877z"/>
	<path style="fill:#194F82;" d="M177.907,202.602h18.489c6.012,0,10.925-4.848,10.925-10.925v-26.44
		c0-6.012-4.848-10.925-10.925-10.925s-10.925,4.848-10.925,10.925v15.515h-7.564c-6.012,0-10.925,4.848-10.925,10.925
		C167.046,197.689,171.895,202.602,177.907,202.602z"/>
</g>
</svg>