<?xml version="1.0" encoding="iso-8859-1"?>
<!-- Uploaded to: SVG Repo, www.svgrepo.com, Generator: SVG Repo Mixer Tools -->
<svg height="800px" width="800px" version="1.1" id="Layer_1" xmlns="http://www.w3.org/2000/svg" xmlns:xlink="http://www.w3.org/1999/xlink" 
	 viewBox="0 0 392.533 392.533" xml:space="preserve">
<polyline style="fill:#FFFFFF;" points="67.308,120.954 45.263,370.747 347.291,370.747 325.247,120.954 "/>
<path style="fill:#FFC10D;" d="M305.207,142.739H87.348L78.362,244.04h38.917c6.012,0,10.925,4.848,10.925,10.925
	c0,6.012-4.848,10.925-10.925,10.925H76.423l-1.939,21.786h20.945c6.012,0,10.925,4.848,10.925,10.925
	c0,6.012-4.848,10.925-10.925,10.925H72.544l-3.491,39.499h254.384L305.207,142.739z"/>
<g>
	<path style="fill:#194F82;" d="M346.063,108.994c-0.453-5.624-5.172-9.956-10.925-9.956h-62.384V79.644
		C272.754,35.749,237.005,0,192.98,0s-79.774,35.749-79.774,79.774v19.394H57.352c-5.624,0-10.343,4.331-10.925,9.956
		L22.443,380.638c-1.228,6.853,5.301,11.895,10.925,11.895h325.883c0.065,0,0.065,0,0.065,0c6.012,0,10.925-4.848,10.925-10.925
		C370.241,380.768,346.063,108.994,346.063,108.994z M135.186,79.709c0-31.935,25.988-57.859,57.859-57.859
		s57.859,25.988,57.859,57.859v19.394H135.186V79.709z M45.263,370.747l22.109-249.794h45.964v17.131
		c0,6.012,4.848,10.925,10.925,10.925c6.077,0,10.925-4.848,10.925-10.925v-17.131h115.846v17.131
		c0,6.012,4.848,10.925,10.925,10.925c6.077,0,10.925-4.848,10.925-10.925v-17.131h52.493l22.109,249.794H45.263z"/>
	<path style="fill:#194F82;" d="M308.762,182.497c-0.517-6.012-5.818-10.408-11.83-9.891c-6.012,0.517-10.408,5.818-9.891,11.83
		l12.606,142.675h-54.626c-6.012,0-10.925,4.848-10.925,10.925s4.848,10.925,10.925,10.925h66.521
		c6.335,0,10.925-4.719,10.925-11.895L308.762,182.497z"/>
</g>
</svg>