<?xml version="1.0" encoding="iso-8859-1"?>
<!-- Uploaded to: SVG Repo, www.svgrepo.com, Generator: SVG Repo Mixer Tools -->
<svg height="800px" width="800px" version="1.1" id="Layer_1" xmlns="http://www.w3.org/2000/svg" xmlns:xlink="http://www.w3.org/1999/xlink" 
	 viewBox="0 0 392.533 392.533" xml:space="preserve">
<path style="fill:#FFFFFF;" d="M231.952,32.711c0-6.012-4.848-10.925-10.925-10.925H38.206c-6.012,0-10.925,4.848-10.925,10.925
	v327.111c0,6.012,4.848,10.925,10.925,10.925h182.885c6.012,0,10.925-4.848,10.925-10.925"/>
<path style="fill:#FFC10D;" d="M225.552,221.156c2.004-2.004,4.784-3.168,7.758-3.168h121.083c6.012,0,10.925-4.848,10.925-10.925
	V109.77c0-6.012-4.848-10.925-10.925-10.925H153.147c-6.012,0-10.925,4.848-10.925,10.925v97.293
	c0,6.012,4.848,10.925,10.925,10.925h24.242c6.012,0,10.925,4.848,10.925,10.925v29.414L225.552,221.156z"/>
<g>
	<path style="fill:#194F82;" d="M196.59,143.58h-16.937c-6.012,0-10.925,4.848-10.925,10.925c0,6.012,4.848,10.925,10.925,10.925
		h16.937c6.012,0,10.925-4.848,10.925-10.925C207.451,148.428,202.602,143.58,196.59,143.58z"/>
	<path style="fill:#194F82;" d="M262.271,143.58h-16.937c-6.012,0-10.925,4.848-10.925,10.925c0,6.012,4.848,10.925,10.925,10.925
		h16.937c6.012,0,10.925-4.848,10.925-10.925C273.131,148.428,268.283,143.58,262.271,143.58z"/>
	<path style="fill:#194F82;" d="M327.952,143.58h-16.937c-6.012,0-10.925,4.848-10.925,10.925c0,6.012,4.848,10.925,10.925,10.925
		h16.937c6.012,0,10.925-4.848,10.925-10.925C338.877,148.428,333.964,143.58,327.952,143.58z"/>
	<path style="fill:#194F82;" d="M354.392,77.123H253.867V32.711C253.867,14.675,239.192,0,221.156,0H38.206
		C20.105,0,5.495,14.675,5.495,32.711v327.111c0,18.036,14.675,32.711,32.711,32.711h182.885c18.036,0,32.711-14.675,32.711-32.711
		V239.774h100.525c18.036,0,32.711-14.675,32.711-32.711V109.77C387.038,91.798,372.428,77.123,354.392,77.123z M231.952,359.822
		c0,6.012-4.848,10.925-10.925,10.925H38.206c-6.012,0-10.925-4.848-10.925-10.925V32.711c0-6.012,4.848-10.925,10.925-10.925
		h182.885c6.012,0,10.925,4.848,10.925,10.925v44.347h-78.869c-18.036,0-32.711,14.675-32.711,32.711v97.358
		c0,18.036,14.675,32.711,32.711,32.711h13.382v44.865c0,4.396,2.651,8.404,6.723,10.02c4.267,1.552,8.21,1.034,11.895-2.392
		l46.804-46.804V359.822L231.952,359.822z M365.253,207.063c0,6.012-4.848,10.925-10.925,10.925H233.309
		c-2.844,0-5.624,1.164-7.758,3.168l-37.172,37.172v-29.414c0-6.012-4.848-10.925-10.925-10.925h-24.242
		c-6.012,0-10.925-4.848-10.925-10.925V109.77c0-6.012,4.848-10.925,10.925-10.925h201.244c6.012,0,10.925,4.848,10.925,10.925
		v97.293H365.253z"/>
</g>
<path style="fill:#56ACE0;" d="M81.39,187.539H59.992v122.57h139.313V281.6v-3.426l-14.093,14.093
	c-3.685,3.297-7.628,3.943-11.895,2.392c-4.073-1.681-6.723-5.624-6.723-10.02v-44.865h-13.382
	c-18.036,0-32.711-14.675-32.711-32.711V109.77c0-11.507,5.947-21.527,14.933-27.41H59.992v29.737h35.556
	c6.012,0,10.925,4.848,10.925,10.925c0,6.012-4.848,10.925-10.925,10.925H59.992v31.806H81.39c6.012,0,10.925,4.848,10.925,10.925
	C92.251,182.691,87.402,187.539,81.39,187.539z"/>
<g>
	<path style="fill:#194F82;" d="M107.442,60.121h44.412c6.012,0,10.925-4.848,10.925-10.925c0-6.012-4.848-10.925-10.925-10.925
		h-44.412c-6.012,0-10.925,4.848-10.925,10.925S101.366,60.121,107.442,60.121z"/>
	<path style="fill:#194F82;" d="M151.855,325.624h-44.412c-6.012,0-10.925,4.848-10.925,10.925c0,6.012,4.848,10.925,10.925,10.925
		h44.412c6.012,0,10.925-4.848,10.925-10.925C162.715,330.473,157.867,325.624,151.855,325.624z"/>
</g>
</svg>