<?xml version="1.0" encoding="iso-8859-1"?>
<!-- Uploaded to: SVG Repo, www.svgrepo.com, Generator: SVG Repo Mixer Tools -->
<svg version="1.1" id="Layer_1" xmlns="http://www.w3.org/2000/svg" xmlns:xlink="http://www.w3.org/1999/xlink" 
	 viewBox="0 0 508 508" xml:space="preserve">
<path style="fill:#FFFFFF;" d="M254,136c-94.8,0-171.9,77.1-171.9,171.9S159.2,479.8,254,479.8s171.9-77.1,171.9-171.9
	S348.8,136,254,136z"/>
<path style="fill:#56ACE0;" d="M254,164.3c-79.2,0-143.7,64.4-143.7,143.6c0,19.7,4,38.6,11.2,55.7h91.8c7.8,0,14.1,6.3,14.1,14.1
	s-6.3,14.1-14.1,14.1h-75.8c7.7,10.7,16.8,20.3,27.2,28.5c0.8-0.2,1.7-0.3,2.6-0.3h46.1c7.8,0,14.1,6.3,14.1,14.1
	c0,5.8-3.5,10.7-8.5,12.9c11.2,2.8,22.9,4.5,34.9,4.5c79.2,0,143.7-64.4,143.7-143.7S333.2,164.3,254,164.3z"/>
<g>
	<path style="fill:#194F82;" d="M268.1,266.6v-85.9c0-7.8-6.3-14.1-14.1-14.1c-7.8,0-14.1,6.3-14.1,14.1v85.9
		c-17.2,5.9-29.6,22.2-29.6,41.3c0,24.1,19.6,43.7,43.7,43.7s43.7-19.6,43.7-43.7C297.7,288.7,285.3,272.5,268.1,266.6z M254,323.4
		c-8.5,0-15.5-6.9-15.5-15.5c0-8.5,6.9-15.5,15.5-15.5c8.5,0,15.5,6.9,15.5,15.5C269.5,316.4,262.5,323.4,254,323.4z"/>
	<path style="fill:#194F82;" d="M450,158c2.6-2.6,4.1-6.2,4.1-10s-1.5-7.3-4.1-10l-40-39.8c-5.5-5.5-14.4-5.5-20,0l-36.4,36.4
		c-14.9-8.6-31-15.3-48-19.9v-30h19.5c7.8,0,14.1-6.3,14.1-14.1V14.1c0-7.8-6.3-14.1-14.1-14.1H182.7c-7.8,0-14.1,6.3-14.1,14.1
		v56.4c0,7.8,6.3,14.1,14.1,14.1h19.5v30C116.9,137.5,53.9,215.5,53.9,307.9C53.9,418.2,143.7,508,254,508s200.1-89.8,200.1-200.1
		c0-43.4-14-83.6-37.5-116.5L450,158z M400.1,128.1l20,20l-21.5,21.5c0,0-0.1,0-0.1,0.1c-6.5-6.8-13.4-13.1-20.8-18.9v-0.1
		L400.1,128.1z M196.9,56.4V28.2h114.3v28.2H196.9z M277.5,84.7v24.5v0.1c-7.7-0.9-15.5-1.5-23.5-1.5c-7.9,0-15.8,0.5-23.5,1.4
		c0,0,0,0,0-0.1V84.7H277.5z M425.9,307.9c0,94.8-77.1,171.9-171.9,171.9c-103.1-0.4-171.9-86.3-171.9-171.9
		C82.1,213.1,159.2,136,254,136S425.9,213.1,425.9,307.9z"/>
</g>
<g>
	<rect x="196.8" y="28.2" style="fill:#FFC10D;" width="114.3" height="28.2"/>
	<path style="fill:#FFC10D;" d="M277.5,109.2V84.7h-47v24.5C246.1,107.4,261.9,107.4,277.5,109.2z"/>
	<path style="fill:#FFC10D;" d="M377.6,150.6c7.4,5.8,14.4,12.2,20.9,19L420,148l-20-20L377.6,150.6z"/>
</g>
<path style="fill:#FFFFFF;" d="M269.5,307.9c0-8.5-6.9-15.5-15.5-15.5s-15.5,6.9-15.5,15.5c0,8.5,6.9,15.5,15.5,15.5
	S269.5,316.4,269.5,307.9z"/>
</svg>