<?xml version="1.0" encoding="iso-8859-1"?>
<!-- Uploaded to: SVG Repo, www.svgrepo.com, Generator: SVG Repo Mixer Tools -->
<svg height="800px" width="800px" version="1.1" id="Layer_1" xmlns="http://www.w3.org/2000/svg" xmlns:xlink="http://www.w3.org/1999/xlink" 
	 viewBox="0 0 392.275 392.275" xml:space="preserve">
<g>
	<path style="fill:#56ACE0;" d="M288.05,253.091l-49.842,117.592H342.03c4.202-30.19,6.594-70.853,0-81.907
		C336.147,278.756,314.491,265.568,288.05,253.091z"/>
	<path style="fill:#56ACE0;" d="M50.151,288.711c-6.594,11.055-4.202,51.782,0,81.907h106.408l-53.527-117.075
		C76.979,265.956,56.034,278.885,50.151,288.711z"/>
	<path style="fill:#56ACE0;" d="M116.996,85.398c0.065,1.422,0.129,2.715,0.259,4.073c0.388,0,0.776,0.065,1.228,0.129
		c0,0,10.02-9.374,14.481-12.154c11.636-7.24,26.634-8.275,39.176-2.715c3.556,1.552,13.382,7.822,15.127,8.727
		c9.244,4.59,20.945,3.814,34.133,2.327c15.515-1.681,31.224-3.62,46.61-5.624c0.453-0.517,2.844-42.408-8.857-50.489
		c-5.947-4.073-14.352-4.848-24.76-5.43l-44.218-2.457c-0.84-0.065-4.396,0-4.461,0.065c-0.711,0.323-7.564,8.598-10.667,10.796
		c-6.982,5.107-14.61,5.689-20.558,5.689c-1.939,0-13.059-0.388-15.386-0.065c-7.24,1.099-14.352,7.37-18.101,16.097
		C116.672,64.388,116.608,76.218,116.996,85.398z"/>
</g>
<g>
	<path style="fill:#FFFFFF;" d="M159.468,324.525l9.05-28.38l-21.269-30.707c-2.909-4.202-2.457-9.891,1.034-13.576
		c1.164-1.228,7.24-8.663,13.834-16.679c-2.457-1.099-4.848-2.133-7.24-3.491c-0.065,0-0.129,0-0.259,0.065
		c-10.602,3.943-21.398,8.275-31.741,12.735L159.468,324.525z"/>
	<path style="fill:#FFFFFF;" d="M268.204,244.105c-10.602-4.59-21.463-8.857-32.065-12.8c-0.065,0-0.129-0.065-0.129-0.065
		c-2.133,1.164-4.331,2.263-6.465,3.232c6.853,8.404,13.382,16.226,14.545,17.455c3.491,3.814,3.879,9.438,1.034,13.576
		l-21.01,30.448l10.408,28.121L268.204,244.105z"/>
</g>
<path style="fill:#FFC10D;" d="M201.424,298.279c-1.228-3.297-0.776-7.047,1.228-9.956l19.523-28.25
	c-4.719-5.689-11.119-13.511-15.451-18.877c-3.879,0.517-7.822,0.905-11.895,0.905c-3.297,0-6.594-0.259-9.762-0.646
	c-4.202,5.172-10.537,12.929-15.127,18.554l19.523,28.25c1.939,2.78,2.457,6.335,1.422,9.503l-17.907,56.048l7.564,16.873h33.939
	l7.37-17.325L201.424,298.279z"/>
<path style="fill:#FFFFFF;" d="M194.895,220.251c39.952,0,72.404-38.465,72.404-85.85c0-8.404-2.133-20.945-3.814-30.125
	c-0.065-0.517-0.129-1.034-0.259-1.487c-13.123,1.681-26.44,3.297-39.628,4.784c-16.097,1.745-31.677,2.715-46.222-4.461
	c-2.844-1.422-12.283-7.434-14.287-8.339c-5.883-2.651-13.317-2.069-18.747,1.293c-2.521,1.616-19.523,17.519-19.523,17.519
	c-1.487,6.853-2.327,13.834-2.327,20.881C122.555,181.721,155.008,220.251,194.895,220.251z"/>
<path style="fill:#FFC10D;" d="M245.06,128.129c-49.519,7.758-64.776,3.168-95.03-14.933c-0.905-0.711-1.745-0.517-2.715,0
	c-2.004,6.982-3.038,14.158-3.038,21.333c0,35.297,22.691,64.065,50.618,64.065s50.618-28.768,50.618-64.065
	C245.448,132.784,245.254,130.521,245.06,128.129z"/>
<path style="fill:#194F82;" d="M360.842,277.592c-14.093-23.725-70.917-48.808-104.339-61.867
	c19.911-19.782,32.582-48.808,32.582-81.261c0-10.279-2.392-23.855-4.073-33.875c-0.323-1.875-0.711-3.879-0.905-5.624
	c1.487-1.681,2.78-3.62,3.943-5.43c3.038-4.719,3.426-9.632,3.62-12.994c1.034-14.545,3.297-48.614-20.234-64.776
	c-11.507-7.887-25.665-8.663-35.943-9.18l-44.218-2.457C189.981,0.065,188.753,0,187.396,0c-3.814,0-6.788,0.905-9.826,1.681
	c-5.883,1.552-14.61,12.8-15.515,13.511c-1.487,1.099-3.685,1.487-7.628,1.487c-1.616,0-14.675-0.388-18.554,0.129
	c-14.804,2.133-28.186,13.317-34.974,29.026c-6.012,13.964-6.206,28.962-5.624,40.598c0.453,9.826,1.552,19.717,3.232,29.414
	c0.388,2.133,1.422,4.202,2.844,5.624c-0.453,4.267-0.711,8.598-0.711,12.929c0,32.84,12.994,62.19,33.293,81.907
	c-35.103,13.899-88.824,38.077-102.465,61.156c-13.899,23.402-3.556,92.186-1.422,105.697c0.84,5.236,5.43,9.115,10.731,9.115
	h310.626c5.301,0,9.891-3.879,10.731-9.115C364.398,369.778,374.676,300.994,360.842,277.592z M268.204,244.105l-33.939,79.968
	l-10.408-28.121l21.01-30.448c2.909-4.202,2.457-9.891-1.034-13.576c-1.164-1.228-7.628-9.115-14.545-17.455
	c2.263-1.034,4.396-2.069,6.465-3.232c0.065,0,0.129,0.065,0.129,0.065C246.741,235.119,257.602,239.58,268.204,244.105z
	 M214.482,370.683h-33.875l-7.564-16.873l17.907-56.048c1.034-3.232,0.517-6.723-1.422-9.503l-19.523-28.251
	c4.655-5.624,10.925-13.382,15.127-18.554c3.168,0.388,6.465,0.646,9.762,0.646c4.008,0,7.952-0.323,11.895-0.905
	c4.331,5.301,10.731,13.123,15.451,18.877l-19.523,28.25c-2.004,2.909-2.457,6.659-1.228,9.956l20.493,55.079L214.482,370.683z
	 M117.254,89.471c-0.065-1.422-0.129-2.715-0.259-4.073c-0.388-9.18-0.388-21.01,3.879-30.901
	c3.685-8.663,10.796-14.998,18.101-16.097c2.327-0.388,13.446,0.065,15.386,0.065c5.947,0,13.576-0.646,20.558-5.689
	c3.103-2.263,9.956-10.602,10.667-10.796c0.065,0,3.556-0.065,4.461-0.065l44.218,2.457c10.343,0.517,18.747,1.293,24.76,5.43
	c11.636,8.016,9.244,49.907,8.857,50.489c-15.386,2.069-31.095,4.008-46.61,5.624c-13.188,1.422-24.889,2.263-34.133-2.327
	c-1.745-0.905-11.572-7.111-15.127-8.727c-12.541-5.56-27.539-4.59-39.176,2.715c-4.396,2.715-14.481,12.154-14.481,12.154
	C118.095,89.665,117.642,89.471,117.254,89.471z M122.555,134.465c0-7.046,0.776-13.964,2.327-20.881
	c0,0,17.002-15.903,19.523-17.519c5.495-3.426,12.929-3.943,18.747-1.293c2.069,0.905,11.442,6.853,14.287,8.339
	c14.545,7.176,30.125,6.271,46.222,4.461c13.188-1.487,26.505-3.038,39.628-4.784c0.065,0.517,0.129,0.905,0.259,1.487
	c1.616,9.18,3.814,21.721,3.814,30.125c0,47.386-32.453,85.851-72.404,85.851S122.555,181.721,122.555,134.465z M154.684,231.758
	c0.065,0,0.129,0,0.259-0.065c2.392,1.228,4.784,2.392,7.24,3.491c-6.594,8.016-12.671,15.515-13.834,16.679
	c-3.491,3.814-3.879,9.438-1.034,13.576l21.269,30.707l-9.051,28.38l-36.655-79.968
	C133.287,240.097,144.018,235.766,154.684,231.758z M50.151,370.683c-4.202-30.19-6.594-70.853,0-81.907
	c5.883-9.891,26.828-22.691,52.881-35.168l53.527,117.075H50.151z M342.095,370.683H238.208l49.842-117.592
	c26.376,12.541,48.032,25.665,54.044,35.62C348.689,299.766,346.232,340.493,342.095,370.683z"/>
</svg>