<?xml version="1.0" encoding="iso-8859-1"?>
<!-- Uploaded to: SVG Repo, www.svgrepo.com, Generator: SVG Repo Mixer Tools -->
<svg height="800px" width="800px" version="1.1" id="Layer_1" xmlns="http://www.w3.org/2000/svg" xmlns:xlink="http://www.w3.org/1999/xlink" 
	 viewBox="0 0 392.524 392.524" xml:space="preserve">
<path style="fill:#FFFFFF;" d="M196.234,238.056c45.253,0,86.691-53.398,89.083-113.39c-44.606-6.788-70.465-29.608-83.071-44.8
	c-15.321,20.234-48.614,56.307-93.479,60.897C117.107,193.838,155.055,238.056,196.234,238.056z"/>
<path style="fill:#FFC10D;" d="M196.234,216.141c-24.824,0-49.519-25.212-60.897-58.57c28.962-10.537,52.299-30.19,68.59-47.774
	c13.77,11.766,32.711,23.725,57.6,31.354C253.899,182.008,225.778,216.141,196.234,216.141z"/>
<path style="fill:#194F82;" d="M386.101,300.181c-3.685-5.495-14.933-22.238-84.04-40.404c-17.455-4.59-29.673-20.945-30.061-39.887
	c21.398-25.988,35.232-62.125,35.232-100.655c0-68.59-46.675-118.368-110.933-118.368S85.366,50.646,85.366,119.236
	c0,39.176,14.222,75.701,36.137,101.818c-0.84,18.489-12.8,34.263-29.931,38.659c-70.271,18.101-81.519,34.974-85.204,40.469
	c-11.636,17.519-4.267,67.556-1.681,82.424c0.905,5.236,5.43,9.051,10.731,9.051h361.632c5.301,0,9.826-3.814,10.731-9.051
	C390.368,367.672,397.867,317.701,386.101,300.181z M196.234,22.589c47.127,0,81.39,32.065,87.919,79.644
	c-52.299-9.762-71.499-44.865-72.275-46.545c-1.745-3.556-5.43-5.818-9.374-5.947c-3.943-0.065-7.628,1.939-9.762,5.301
	c-0.388,0.646-35.491,58.246-85.786,63.806C107.152,62.218,143.742,22.589,196.234,22.589z M108.768,140.763
	c44.8-4.59,78.093-40.727,93.479-60.897c12.606,15.192,38.465,38.012,83.071,44.8c-2.392,59.992-43.83,113.39-89.083,113.39
	C155.055,238.056,117.107,193.838,108.768,140.763z M259.2,252.408l-62.966,67.232l-62.384-66.521
	c2.651-4.331,4.719-8.986,6.271-13.834c16.679,12.994,35.943,20.622,56.113,20.622c20.493,0,40.016-7.887,56.889-21.269
	C254.675,243.422,256.679,248.076,259.2,252.408z M367.677,369.87H24.792c-3.491-24.566-4.396-51.394-0.259-57.6
	c2.392-3.62,14.869-16.614,72.469-31.547c8.339-2.133,15.903-6.012,22.432-11.313l68.848,73.568c5.236,5.172,11.83,3.685,15.903,0
	l69.301-73.891c6.659,5.43,14.481,9.503,23.014,11.83c56.824,14.933,69.107,27.798,71.499,31.418
	C372.137,318.476,371.168,345.305,367.677,369.87z"/>
<path style="fill:#56ACE0;" d="M192.808,55.107c2.004-3.426,5.689-5.43,9.762-5.301c3.943,0.129,7.564,2.392,9.374,5.947
	c0.84,1.552,19.911,36.784,72.275,46.545c-6.594-47.58-40.792-79.644-87.919-79.644c-52.493,0-89.083,39.628-89.147,96.453
	C157.382,113.482,192.42,55.753,192.808,55.107z"/>
<path style="fill:#FFFFFF;" d="M196.234,259.842c-20.105,0-39.434-7.628-56.113-20.622c-1.552,4.848-3.685,9.568-6.271,13.834
	l62.384,66.521l62.966-67.232c-2.521-4.331-4.59-8.986-6.077-13.834C236.251,251.955,216.727,259.842,196.234,259.842z"/>
<path style="fill:#56ACE0;" d="M367.677,369.87c3.491-24.566,4.396-51.394,0.259-57.6c-2.392-3.62-14.675-16.549-71.499-31.418
	c-8.663-2.263-16.356-6.335-23.014-11.83l-69.301,73.891c-4.073,3.685-10.667,5.172-15.903,0L119.37,269.41
	c-6.465,5.172-14.093,9.115-22.432,11.313c-57.729,14.869-70.077,27.863-72.469,31.483c-4.073,6.206-3.168,32.97,0.259,57.6h343.014
	v0.065H367.677z"/>
</svg>