<?xml version="1.0" encoding="iso-8859-1"?>
<!-- Uploaded to: SVG Repo, www.svgrepo.com, Generator: SVG Repo Mixer Tools -->
<svg height="800px" width="800px" version="1.1" id="Layer_1" xmlns="http://www.w3.org/2000/svg" xmlns:xlink="http://www.w3.org/1999/xlink" 
	 viewBox="0 0 392.533 392.533" xml:space="preserve">
<path style="fill:#FFC10D;" d="M269.691,143.58c-12.671,37.301-42.02,65.681-73.438,65.681s-60.768-28.251-73.309-65.681
	l25.277-48.55c7.758-14.933,23.014-24.113,39.822-24.113h16.485c16.743,0,32.065,9.244,39.822,24.113L269.691,143.58z"/>
<path style="fill:#56ACE0;" d="M134.127,259.232l-31.289-12.218l22.044-32.517l42.02,117.527l-36.137-40.857l8.986-16.679
	c1.487-2.78,1.681-6.012,0.646-8.857C139.299,262.723,137.101,260.396,134.127,259.232z"/>
<g>
	<path style="fill:#FFFFFF;" d="M109.238,300.024l62.642,70.788l-145.067-0.065c-4.913-34.844-8.533-86.691,0.129-102.077
		c6.982-12.412,37.689-32.129,67.749-48.679l-17.778,26.053c-1.875,2.78-2.392,6.206-1.422,9.374c1.034,3.168,3.297,5.689,6.4,6.982
		l32.582,12.735l-6.723,12.541C105.618,291.685,106.2,296.663,109.238,300.024z"/>
	<path style="fill:#FFFFFF;" d="M244.22,215.079l-47.968,134.206L148.22,215.014c14.093,9.956,30.19,15.968,48.032,15.968
		S230.256,224.97,244.22,215.079z"/>
</g>
<path style="fill:#56ACE0;" d="M225.602,332.024l42.02-117.527l22.109,32.453l-31.289,12.218c-2.909,1.164-5.172,3.491-6.271,6.4
	s-0.84,6.206,0.646,8.857l8.986,16.679L225.602,332.024z"/>
<path style="fill:#FFFFFF;" d="M365.691,370.747H220.43l62.642-70.788c3.038-3.426,3.62-8.339,1.487-12.347l-6.723-12.541
	l32.582-12.735c3.103-1.228,5.495-3.814,6.4-6.982c1.034-3.168,0.453-6.659-1.422-9.374l-17.778-26.053
	c30.061,16.549,60.897,36.331,67.814,48.743C374.16,283.992,370.475,335.903,365.691,370.747z"/>
<path style="fill:#56ACE0;" d="M276.285,104.145c0,1.487-0.129,2.844-0.129,4.331l-12.283-23.596
	c-11.507-22.109-34.263-35.879-59.087-35.879h-16.485c-24.954,0-47.58,13.77-59.087,35.879l-12.606,23.596
	c-0.065-1.487-0.129-2.844-0.129-4.331c0-48.549,32.84-82.36,79.903-82.36S276.285,55.725,276.285,104.145z"/>
<path style="fill:#194F82;" d="M384.568,258.004c-15.063-26.958-88.695-64.323-110.287-74.796
	c14.998-23.208,23.661-51.782,23.661-79.063C297.941,43.766,255.145,0,196.252,0C137.295,0,94.564,43.83,94.564,104.21
	c0,27.216,8.663,55.855,23.661,79.063C96.632,193.745,23,231.046,7.937,258.004c-16.097,28.832-2.844,115.523-1.228,125.35
	c0.84,5.236,5.43,9.18,10.731,9.18h357.624c5.301,0,9.891-3.879,10.731-9.18C387.412,373.527,400.729,286.836,384.568,258.004z
	 M289.731,246.95l-31.289,12.218c-2.909,1.164-5.172,3.491-6.271,6.4s-0.84,6.206,0.646,8.857l8.986,16.679l-36.202,40.921
	l42.02-117.527L289.731,246.95z M196.252,209.261c-31.418,0-60.768-28.251-73.309-65.681l25.277-48.55
	c7.758-14.933,23.014-24.113,39.822-24.113h16.485c16.743,0,32.065,9.244,39.822,24.113l25.341,48.55
	C257.02,180.881,227.671,209.261,196.252,209.261z M116.608,108.477c-0.065-1.487-0.129-2.844-0.129-4.331
	c0-48.549,32.84-82.36,79.903-82.36s79.903,33.939,79.903,82.36c0,1.487-0.129,2.844-0.129,4.331l-12.283-23.596
	c-11.507-22.109-34.263-35.879-59.087-35.879h-16.485c-24.954,0-47.58,13.77-59.087,35.879L116.608,108.477z M124.883,214.497
	l42.02,117.527l-36.137-40.857l8.986-16.679c1.487-2.78,1.681-6.012,0.646-8.857c-1.099-2.909-3.297-5.236-6.271-6.4l-31.289-12.218
	L124.883,214.497z M26.814,370.747c-4.913-34.844-8.533-86.691,0.129-102.077c6.982-12.412,37.689-32.129,67.749-48.679
	l-17.778,26.053c-1.875,2.78-2.392,6.206-1.422,9.374c1.034,3.168,3.297,5.689,6.4,6.982l32.582,12.735l-6.723,12.541
	c-2.133,4.008-1.552,8.986,1.487,12.347l62.642,70.788L26.814,370.747L26.814,370.747z M148.22,215.014
	c14.093,9.956,30.19,15.968,48.032,15.968s34.004-6.012,47.968-15.903l-47.968,134.206L148.22,215.014z M365.691,370.747H220.43
	l62.642-70.788c3.038-3.426,3.62-8.339,1.487-12.347l-6.723-12.541l32.582-12.735c3.103-1.228,5.495-3.814,6.4-6.982
	c1.034-3.168,0.453-6.659-1.422-9.374l-17.778-26.053c30.061,16.549,60.897,36.331,67.814,48.743
	C374.16,283.992,370.475,335.903,365.691,370.747z"/>
</svg>