<?xml version="1.0" encoding="iso-8859-1"?>
<!-- Uploaded to: SVG Repo, www.svgrepo.com, Generator: SVG Repo Mixer Tools -->
<svg height="800px" width="800px" version="1.1" id="Layer_1" xmlns="http://www.w3.org/2000/svg" xmlns:xlink="http://www.w3.org/1999/xlink" 
	 viewBox="0 0 392.609 392.609" xml:space="preserve">
<path style="fill:#56ACE0;" d="M275.793,180.79c-52.364,0-95.03,42.667-95.03,95.03s42.667,95.03,95.03,95.03
	s95.03-42.667,95.03-95.03S328.157,180.79,275.793,180.79z"/>
<path style="fill:#FFFFFF;" d="M299.26,237.161l-58.699,58.699l-0.905,22.303l22.303-0.905l58.699-58.699
	c5.883-5.883,5.883-15.515,0-21.398C314.969,231.472,305.013,231.472,299.26,237.161z"/>
<path style="fill:#194F82;" d="M275.793,158.874c-24.63,0-47.58,7.758-66.457,20.881c-7.111-4.59-11.766-12.671-11.895-21.721
	c15.063-18.683,24.76-44.347,24.76-71.693c-0.065-49.972-34.133-86.303-81.131-86.303S59.874,36.369,59.874,86.341
	c0,27.733,9.891,53.657,25.341,72.469c-0.517,11.507-7.952,21.333-18.554,24.048c-50.36,13.059-58.828,25.665-61.608,29.737
	c-8.663,12.929-4.073,46.352-1.681,60.186c0.905,5.236,5.43,9.051,10.731,9.051h145.131
	c3.232,61.608,54.174,110.739,116.558,110.739c64.453,0,116.816-52.364,116.816-116.816S340.246,158.874,275.793,158.874z
	 M141.005,21.824c29.673,0,51.717,19.265,57.665,48.356c-31.418-7.564-43.248-28.832-43.766-29.802
	c-1.745-3.556-5.43-5.818-9.374-5.947c-4.073-0.129-7.628,1.875-9.762,5.236c-0.259,0.388-22.497,36.331-54.044,42.408
	C83.599,46.454,107.389,21.824,141.005,21.824z M83.47,104.119c28.638-4.396,50.36-25.988,61.867-40.339
	c9.632,10.537,27.022,23.984,54.626,28.897c-2.715,39.305-29.608,73.697-59.022,73.697
	C114.436,166.373,89.999,138.446,83.47,104.119z M192.141,194.236c-3.814,3.879-7.24,8.016-10.408,12.412l0,0
	c-31.224,15.838-68.461,11.96-95.677-8.986c7.887-5.236,13.964-12.929,17.519-21.85c11.378,7.822,24.113,12.347,37.43,12.347
	c13.511,0,26.505-4.655,38.012-12.735C181.862,182.729,186.387,189.194,192.141,194.236L192.141,194.236z M160.076,260.046H23.543
	c-2.069-16.226-2.327-31.612-0.323-35.297c1.034-1.487,7.499-8.986,39.887-18.295c21.333,20.687,49.455,31.741,78.028,31.741
	c8.404,0,16.873-1.034,25.083-2.909C163.373,243.238,161.24,251.448,160.076,260.046z M275.793,370.785
	c-52.364,0-95.03-42.667-95.03-95.03s42.667-95.03,95.03-95.03s95.03,42.667,95.03,95.03S328.157,370.785,275.793,370.785z"/>
<path style="fill:#FFC10D;" d="M160.076,260.046c1.164-8.598,3.232-16.873,6.206-24.76c-8.275,1.939-16.743,2.909-25.083,2.909
	c-28.574,0-56.63-11.055-78.028-31.741c-32.388,9.244-38.853,16.743-39.887,18.295c-2.004,3.685-1.745,19.071,0.323,35.297h136.533
	l0,0H160.076z"/>
<path style="fill:#FFFFFF;" d="M181.733,206.648L181.733,206.648c3.232-4.331,6.659-8.469,10.408-12.412l0,0
	c-5.818-5.042-10.279-11.507-13.123-18.683c-11.507,8.145-24.501,12.735-38.012,12.735c-13.317,0-26.053-4.59-37.43-12.347
	c-3.556,8.986-9.632,16.549-17.519,21.85C113.272,218.608,150.508,222.486,181.733,206.648z"/>
<path style="fill:#FFC10D;" d="M141.005,166.373c29.414,0,56.307-34.392,59.022-73.697c-27.604-4.978-45.059-18.36-54.626-28.897
	c-11.507,14.287-33.228,35.943-61.867,40.339C89.999,138.446,114.436,166.373,141.005,166.373z"/>
<path style="fill:#56ACE0;" d="M135.834,39.731c2.004-3.426,5.56-5.43,9.762-5.236c3.943,0.129,7.499,2.392,9.374,5.947
	c0.453,0.905,12.283,22.174,43.766,29.737c-5.947-29.156-27.992-48.356-57.665-48.356c-33.616,0-57.406,24.63-59.087,60.38
	C113.337,76.062,135.575,40.119,135.834,39.731z"/>
<path style="fill:#194F82;" d="M336.108,221.711c-14.158-14.158-37.301-14.675-52.234,0l-61.737,61.737
	c-1.939,1.939-3.103,4.461-3.168,7.24l-1.616,38.465c-0.711,6.4,5.236,11.378,10.925,11.378c0.129,0,38.917-1.616,38.917-1.616
	c2.715-0.065,5.301-1.228,7.24-3.168l61.737-61.737C349.425,260.369,351.559,237.808,336.108,221.711z M320.658,258.495
	l-58.699,58.699l-22.303,0.905l0.905-22.303l58.699-58.699c5.689-5.689,15.709-5.689,21.398,0
	C326.605,242.85,326.476,252.806,320.658,258.495z"/>
</svg>