<?xml version="1.0" encoding="utf-8"?><!-- Uploaded to: SVG Repo, www.svgrepo.com, Generator: SVG Repo Mixer Tools -->
<svg fill="#000000" width="800px" height="800px" viewBox="0 0 24 24" id="wallet-money-3" data-name="Flat Color" xmlns="http://www.w3.org/2000/svg" class="icon flat-color"><path id="secondary" d="M11.38,3.39,6.74,10H4.88A1,1,0,0,1,4,9.46a1,1,0,0,1,.06-1l4.21-6A1,1,0,0,1,8.91,2a1,1,0,0,1,.75.16Zm8.19,2.23L14.66,2.18a1,1,0,0,0-1.39.25L12.19,4,8,10h9.25A1,1,0,0,0,18,9.57L19.82,7a1,1,0,0,0-.25-1.39Z" style="fill: rgb(44, 169, 188);"></path><rect id="primary" x="2" y="8" width="20" height="14" rx="2" style="fill: rgb(0, 0, 0);"></rect><circle id="secondary-2" data-name="secondary" cx="18" cy="15" r="1.5" style="fill: rgb(44, 169, 188);"></circle></svg>