<?xml version="1.0" encoding="iso-8859-1"?>
<!-- Uploaded to: SVG Repo, www.svgrepo.com, Generator: SVG Repo Mixer Tools -->
<svg version="1.1" id="Layer_1" xmlns="http://www.w3.org/2000/svg" xmlns:xlink="http://www.w3.org/1999/xlink" 
	 viewBox="0 0 392.663 392.663" xml:space="preserve">
<g>
	<path style="fill:#FFC10D;" d="M144.187,131.556v-76.8c-27.604,16.356-45.834,44.735-49.196,76.8H144.187L144.187,131.556z"/>
	<path style="fill:#FFC10D;" d="M248.527,54.756v76.8h49.196C294.361,99.362,276.195,71.046,248.527,54.756z"/>
</g>
<g>
	<path style="fill:#56ACE0;" d="M283.63,284.832c-17.131-7.37-29.931-22.562-34.457-40.986
		c-15.709,8.598-33.681,13.511-52.752,13.511c-18.747,0-36.461-4.719-51.911-12.994c-4.784,18.489-17.778,33.681-35.297,40.792
		v44.735H283.63V284.832L283.63,284.832z"/>
	<path style="fill:#56ACE0;" d="M32.995,317.285c-3.491,5.107-3.168,28.897,0.323,53.527h54.044V291.62
		C44.955,303.968,35.064,314.182,32.995,317.285z"/>
	<path style="fill:#56ACE0;" d="M359.719,317.285c-2.069-3.103-11.96-13.382-54.303-25.794v79.386h54.044
		C362.886,346.182,363.21,322.392,359.719,317.285z"/>
</g>
<rect x="165.973" y="21.85" style="fill:#FFC10D;" width="60.768" height="109.705"/>
<g>
	<path style="fill:#FFFFFF;" d="M196.357,235.572c46.804,0,85.333-36.267,88.954-82.23H107.404
		C111.024,199.24,149.553,235.572,196.357,235.572z"/>
	<rect x="109.084" y="351.741" style="fill:#FFFFFF;" width="174.481" height="19.071"/>
</g>
<path style="fill:#194F82;" d="M377.82,305.067c-3.556-5.236-14.287-21.269-80.42-38.465c-16.226-4.267-27.669-19.265-28.186-36.719
	c21.657-18.941,36.008-46.028,37.948-76.477h23.273c6.012,0,10.925-4.848,10.925-10.925c0-6.012-4.848-10.925-10.925-10.925h-10.667
	c-3.814-44.283-30.707-82.683-71.176-101.366V10.925C248.591,4.913,243.743,0,237.666,0h-82.554
	c-6.012,0-10.925,4.848-10.925,10.925V30.19C103.848,48.937,76.89,87.531,73.012,131.556H62.345
	c-6.012,0-10.925,4.848-10.925,10.925c0,6.012,4.848,10.925,10.925,10.925h23.273c1.939,30.901,16.679,58.311,38.853,77.253
	c-0.905,17.131-12.154,31.677-28.057,35.749c-67.103,17.261-77.964,33.293-81.519,38.594c-11.313,16.873-4.202,64.453-1.681,78.61
	c0.905,5.236,5.43,9.051,10.731,9.051h344.76c5.301,0,9.826-3.814,10.731-9.051C381.957,369.454,389.068,321.81,377.82,305.067z
	 M109.084,351.741H283.63v19.071H109.084V351.741z M248.527,54.756c27.669,16.356,45.834,44.606,49.196,76.8h-49.196V54.756z
	 M165.973,21.85h60.768v109.705h-60.768V21.85L165.973,21.85z M144.187,54.756v76.8H94.991
	C98.353,99.556,116.583,71.176,144.187,54.756z M107.404,153.341h177.778c-3.62,45.899-42.085,82.23-88.954,82.23
	S111.024,199.24,107.404,153.341z M144.446,244.364c15.515,8.275,33.164,12.994,51.911,12.994c19.071,0,37.107-4.913,52.752-13.446
	c4.59,18.295,17.325,33.551,34.457,40.986v45.059H109.084V285.22C126.668,278.109,139.662,262.853,144.446,244.364z M32.995,317.285
	c2.069-3.103,11.96-13.317,54.303-25.665v79.192H33.254C29.828,346.182,29.505,322.392,32.995,317.285z M359.395,370.812h-54.044
	v-79.386c42.343,12.412,52.234,22.691,54.303,25.794C363.21,322.392,362.886,346.182,359.395,370.812z"/>
</svg>